League Mono-Thin.ufo
<glyph name="dollar" format="1">
  <advance width="600"/>
  <unicode hex="0024"/>
  <outline>
    <contour>
      <point x="284" y="-130" type="line"/>
      <point x="317" y="-130" type="line"/>
      <point x="317" y="800" type="line"/>
      <point x="284" y="800" type="line"/>
    </contour>
    <contour>
      <point x="191" y="428"/>
      <point x="140" y="482"/>
      <point x="140" y="550" type="curve" smooth="yes"/>
      <point x="140" y="627"/>
      <point x="202" y="673"/>
      <point x="308" y="673" type="curve" smooth="yes"/>
      <point x="392" y="673"/>
      <point x="445" y="642"/>
      <point x="476" y="577" type="curve"/>
      <point x="509" y="594" type="line"/>
      <point x="473" y="666"/>
      <point x="402" y="706"/>
      <point x="308" y="706" type="curve" smooth="yes"/>
      <point x="177" y="706"/>
      <point x="103" y="650"/>
      <point x="103" y="550" type="curve" smooth="yes"/>
      <point x="103" y="465"/>
      <point x="168" y="396"/>
      <point x="293" y="348" type="curve" smooth="yes"/>
      <point x="433" y="294"/>
      <point x="486" y="248"/>
      <point x="486" y="177" type="curve" smooth="yes"/>
      <point x="486" y="85"/>
      <point x="403" y="22"/>
      <point x="296" y="22" type="curve" smooth="yes"/>
      <point x="203" y="22"/>
      <point x="143" y="53"/>
      <point x="106" y="122" type="curve"/>
      <point x="70" y="104" type="line"/>
      <point x="113" y="27"/>
      <point x="187" y="-11"/>
      <point x="296" y="-11" type="curve" smooth="yes"/>
      <point x="431" y="-11"/>
      <point x="522" y="61"/>
      <point x="522" y="180" type="curve" smooth="yes"/>
      <point x="522" y="268"/>
      <point x="466" y="318"/>
      <point x="293" y="387" type="curve" smooth="yes"/>
    </contour>
  </outline>
</glyph>
<glyph name="percent" format="1">
  <advance width="600"/>
  <unicode hex="0025"/>
  <outline>
    <contour>
      <point x="494" y="700" type="line"/>
      <point x="72" y="0" type="line"/>
      <point x="112" y="0" type="line"/>
      <point x="534" y="700" type="line"/>
    </contour>
    <contour>
      <point x="218" y="426"/>
      <point x="272" y="460"/>
      <point x="272" y="557" type="curve" smooth="yes"/>
      <point x="272" y="653"/>
      <point x="218" y="687"/>
      <point x="165" y="687" type="curve" smooth="yes"/>
      <point x="112" y="687"/>
      <point x="58" y="653"/>
      <point x="58" y="557" type="curve" smooth="yes"/>
      <point x="58" y="460"/>
      <point x="112" y="426"/>
      <point x="165" y="426" type="curve" smooth="yes"/>
    </contour>
    <contour>
      <point x="123" y="457"/>
      <point x="92" y="481"/>
      <point x="92" y="557" type="curve" smooth="yes"/>
      <point x="92" y="632"/>
      <point x="123" y="656"/>
      <point x="165" y="656" type="curve" smooth="yes"/>
      <point x="207" y="656"/>
      <point x="238" y="632"/>
      <point x="238" y="557" type="curve" smooth="yes"/>
      <point x="238" y="481"/>
      <point x="207" y="457"/>
      <point x="165" y="457" type="curve" smooth="yes"/>
    </contour>
    <contour>
      <point x="500" y="6"/>
      <point x="554" y="40"/>
      <point x="554" y="137" type="curve" smooth="yes"/>
      <point x="554" y="233"/>
      <point x="500" y="267"/>
      <point x="447" y="267" type="curve" smooth="yes"/>
      <point x="394" y="267"/>
      <point x="340" y="233"/>
      <point x="340" y="137" type="curve" smooth="yes"/>
      <point x="340" y="40"/>
      <point x="394" y="6"/>
      <point x="447" y="6" type="curve" smooth="yes"/>
    </contour>
    <contour>
      <point x="405" y="37"/>
      <point x="374" y="61"/>
      <point x="374" y="137" type="curve" smooth="yes"/>
      <point x="374" y="212"/>
      <point x="405" y="236"/>
      <point x="447" y="236" type="curve" smooth="yes"/>
      <point x="489" y="236"/>
      <point x="520" y="212"/>
      <point x="520" y="137" type="curve" smooth="yes"/>
      <point x="520" y="61"/>
      <point x="489" y="37"/>
      <point x="447" y="37" type="curve" smooth="yes"/>
    </contour>
  </outline>
</glyph>
<glyph name="plus" format="1">
  <advance width="600"/>
  <unicode hex="002B"/>
  <outline>
    <contour>
      <point x="119" y="288" type="line"/>
      <point x="486" y="288" type="line"/>
      <point x="486" y="320" type="line"/>
      <point x="119" y="320" type="line"/>
    </contour>
    <contour>
      <point x="319" y="120" type="line"/>
      <point x="319" y="487" type="line"/>
      <point x="287" y="487" type="line"/>
      <point x="287" y="120" type="line"/>
    </contour>
  </outline>
</glyph>
<glyph name="comma" format="1">
  <advance width="600"/>
  <unicode hex="002C"/>
  <outline>
    <contour>
      <point x="295" y="-7"/>
      <point x="318" y="16"/>
      <point x="318" y="45" type="curve" smooth="yes"/>
      <point x="318" y="72"/>
      <point x="295" y="95"/>
      <point x="267" y="95" type="curve" smooth="yes"/>
      <point x="239" y="95"/>
      <point x="216" y="72"/>
      <point x="216" y="45" type="curve" smooth="yes"/>
      <point x="216" y="16"/>
      <point x="239" y="-7"/>
      <point x="267" y="-7" type="curve" smooth="yes"/>
    </contour>
    <contour>
      <point x="231" y="-95" type="line"/>
      <point x="261" y="-109" type="line"/>
      <point x="314" y="25" type="line"/>
      <point x="268" y="18" type="line"/>
    </contour>
  </outline>
</glyph>
<glyph name="slash" format="1">
  <advance width="600"/>
  <unicode hex="002F"/>
  <outline>
    <contour>
      <point x="416" y="800" type="line"/>
      <point x="167" y="-142" type="line"/>
      <point x="197" y="-142" type="line"/>
      <point x="446" y="800" type="line"/>
    </contour>
  </outline>
</glyph>
<glyph name="zero" format="1">
  <advance width="600"/>
  <unicode hex="0030"/>
  <outline>
    <contour>
      <point x="388" y="-11"/>
      <point x="496" y="70"/>
      <point x="496" y="348" type="curve" smooth="yes"/>
      <point x="496" y="625"/>
      <point x="388" y="706"/>
      <point x="302" y="706" type="curve" smooth="yes"/>
      <point x="205" y="706"/>
      <point x="107" y="625"/>
      <point x="107" y="348" type="curve" smooth="yes"/>
      <point x="107" y="70"/>
      <point x="205" y="-11"/>
      <point x="302" y="-11" type="curve" smooth="yes"/>
    </contour>
    <contour>
      <point x="209" y="22"/>
      <point x="140" y="125"/>
      <point x="140" y="348" type="curve" smooth="yes"/>
      <point x="140" y="571"/>
      <point x="209" y="673"/>
      <point x="302" y="673" type="curve" smooth="yes"/>
      <point x="391" y="673"/>
      <point x="463" y="571"/>
      <point x="463" y="348" type="curve" smooth="yes"/>
      <point x="463" y="125"/>
      <point x="391" y="22"/>
      <point x="302" y="22" type="curve" smooth="yes"/>
    </contour>
    <contour>
      <point x="321" y="283"/>
      <point x="344" y="296"/>
      <point x="344" y="348" type="curve" smooth="yes"/>
      <point x="344" y="399"/>
      <point x="321" y="412"/>
      <point x="302" y="412" type="curve" smooth="yes"/>
      <point x="282" y="412"/>
      <point x="259" y="399"/>
      <point x="259" y="348" type="curve" smooth="yes"/>
      <point x="259" y="296"/>
      <point x="282" y="283"/>
      <point x="302" y="283" type="curve" smooth="yes"/>
    </contour>
  </outline>
</glyph>
<glyph name="four" format="1">
  <advance width="600"/>
  <unicode hex="0034"/>
  <outline>
    <contour>
      <point x="133" y="208" type="line"/>
      <point x="305" y="682" type="line"/>
      <point x="277" y="700" type="line"/>
      <point x="98" y="208" type="line"/>
    </contour>
    <contour>
      <point x="372" y="668" type="line"/>
      <point x="372" y="700" type="line"/>
      <point x="277" y="700" type="line"/>
      <point x="277" y="668" type="line"/>
    </contour>
    <contour>
      <point x="382" y="0" type="line"/>
      <point x="382" y="700" type="line"/>
      <point x="349" y="700" type="line"/>
      <point x="349" y="0" type="line"/>
    </contour>
    <contour>
      <point x="511" y="176" type="line"/>
      <point x="511" y="208" type="line"/>
      <point x="98" y="208" type="line"/>
      <point x="98" y="176" type="line"/>
    </contour>
  </outline>
</glyph>
<glyph name="five" format="1">
  <advance width="600"/>
  <unicode hex="0035"/>
  <outline>
    <contour>
      <point x="424" y="-11"/>
      <point x="497" y="77"/>
      <point x="497" y="231" type="curve" smooth="yes"/>
      <point x="497" y="386"/>
      <point x="428" y="462"/>
      <point x="308" y="462" type="curve" smooth="yes"/>
      <point x="212" y="462"/>
      <point x="148" y="414"/>
      <point x="132" y="341" type="curve"/>
      <point x="142" y="314" type="line"/>
      <point x="181" y="394"/>
      <point x="230" y="429"/>
      <point x="308" y="429" type="curve" smooth="yes"/>
      <point x="412" y="429"/>
      <point x="459" y="359"/>
      <point x="459" y="231" type="curve" smooth="yes"/>
      <point x="459" y="88"/>
      <point x="397" y="22"/>
      <point x="285" y="22" type="curve" smooth="yes"/>
      <point x="213" y="22"/>
      <point x="148" y="48"/>
      <point x="117" y="95" type="curve"/>
      <point x="83" y="76" type="line"/>
      <point x="126" y="19"/>
      <point x="198" y="-11"/>
      <point x="282" y="-11" type="curve" smooth="yes"/>
    </contour>
    <contour>
      <point x="178" y="673" type="line"/>
      <point x="148" y="700" type="line"/>
      <point x="113" y="327" type="line"/>
      <point x="142" y="314" type="line"/>
    </contour>
    <contour>
      <point x="479" y="668" type="line"/>
      <point x="479" y="700" type="line"/>
      <point x="148" y="700" type="line"/>
      <point x="148" y="668" type="line"/>
    </contour>
  </outline>
</glyph>
<glyph name="eight" format="1">
  <advance width="600"/>
  <unicode hex="0038"/>
  <outline>
    <contour>
      <point x="424" y="-11"/>
      <point x="517" y="53"/>
      <point x="517" y="196" type="curve" smooth="yes"/>
      <point x="517" y="328"/>
      <point x="412" y="385"/>
      <point x="303" y="385" type="curve" smooth="yes"/>
      <point x="188" y="385"/>
      <point x="88" y="328"/>
      <point x="88" y="196" type="curve" smooth="yes"/>
      <point x="88" y="53"/>
      <point x="181" y="-11"/>
      <point x="303" y="-11" type="curve" smooth="yes"/>
    </contour>
    <contour>
      <point x="195" y="22"/>
      <point x="126" y="80"/>
      <point x="126" y="194" type="curve" smooth="yes"/>
      <point x="126" y="305"/>
      <point x="190" y="352"/>
      <point x="303" y="352" type="curve" smooth="yes"/>
      <point x="415" y="352"/>
      <point x="479" y="305"/>
      <point x="479" y="194" type="curve" smooth="yes"/>
      <point x="479" y="80"/>
      <point x="410" y="22"/>
      <point x="303" y="22" type="curve" smooth="yes"/>
    </contour>
    <contour>
      <point x="409" y="352"/>
      <point x="487" y="406"/>
      <point x="487" y="529" type="curve" smooth="yes"/>
      <point x="487" y="651"/>
      <point x="399" y="707"/>
      <point x="303" y="707" type="curve" smooth="yes"/>
      <point x="206" y="707"/>
      <point x="118" y="651"/>
      <point x="118" y="529" type="curve" smooth="yes"/>
      <point x="118" y="406"/>
      <point x="196" y="352"/>
      <point x="303" y="352" type="curve" smooth="yes"/>
    </contour>
    <contour>
      <point x="194" y="385"/>
      <point x="156" y="440"/>
      <point x="156" y="529" type="curve" smooth="yes"/>
      <point x="156" y="637"/>
      <point x="220" y="674"/>
      <point x="303" y="674" type="curve" smooth="yes"/>
      <point x="385" y="674"/>
      <point x="449" y="637"/>
      <point x="449" y="529" type="curve" smooth="yes"/>
      <point x="449" y="440"/>
      <point x="418" y="385"/>
      <point x="303" y="385" type="curve" smooth="yes"/>
    </contour>
  </outline>
</glyph>
<glyph name="nine" format="1">
  <advance width="600"/>
  <unicode hex="0039"/>
  <outline>
    <contour>
      <point x="292" y="707" type="line"/>
      <point x="175" y="707"/>
      <point x="90" y="616"/>
      <point x="90" y="465" type="curve" smooth="yes"/>
      <point x="90" y="312"/>
      <point x="163" y="234"/>
      <point x="280" y="234" type="curve" smooth="yes"/>
      <point x="371" y="234"/>
      <point x="427" y="273"/>
      <point x="475" y="363" type="curve"/>
      <point x="471" y="420" type="line"/>
      <point x="441" y="338"/>
      <point x="381" y="267"/>
      <point x="277" y="267" type="curve" smooth="yes"/>
      <point x="181" y="267"/>
      <point x="128" y="326"/>
      <point x="128" y="465" type="curve" smooth="yes"/>
      <point x="128" y="602"/>
      <point x="189" y="674"/>
      <point x="292" y="674" type="curve"/>
    </contour>
    <contour>
      <point x="143" y="0" type="line"/>
      <point x="155" y="0"/>
      <point x="231" y="1"/>
      <point x="307" y="31" type="curve" smooth="yes"/>
      <point x="428" y="78"/>
      <point x="507" y="196"/>
      <point x="507" y="408" type="curve" smooth="yes"/>
      <point x="507" y="634"/>
      <point x="419" y="707"/>
      <point x="292" y="707" type="curve"/>
      <point x="292" y="674" type="line"/>
      <point x="405" y="674"/>
      <point x="471" y="620"/>
      <point x="471" y="408" type="curve" smooth="yes"/>
      <point x="471" y="210"/>
      <point x="405" y="109"/>
      <point x="297" y="63" type="curve" smooth="yes"/>
      <point x="235" y="37"/>
      <point x="153" y="32"/>
      <point x="143" y="32" type="curve"/>
    </contour>
  </outline>
</glyph>
<glyph name="question" format="1">
  <advance width="600"/>
  <unicode hex="003F"/>
  <outline>
    <contour>
      <point x="301" y="185" type="line"/>
      <point x="301" y="229" type="line"/>
      <point x="301" y="336"/>
      <point x="479" y="393"/>
      <point x="489" y="520" type="curve" smooth="yes"/>
      <point x="498" y="638"/>
      <point x="424" y="706"/>
      <point x="303" y="706" type="curve" smooth="yes"/>
      <point x="208" y="706"/>
      <point x="130" y="657"/>
      <point x="106" y="612" type="curve"/>
      <point x="139" y="594" type="line"/>
      <point x="163" y="637"/>
      <point x="224" y="675"/>
      <point x="303" y="675" type="curve" smooth="yes"/>
      <point x="369" y="675"/>
      <point x="463" y="643"/>
      <point x="453" y="520" type="curve" smooth="yes"/>
      <point x="443" y="395"/>
      <point x="269" y="361"/>
      <point x="269" y="224" type="curve"/>
      <point x="269" y="185" type="line"/>
    </contour>
    <contour>
      <point x="311" y="-11"/>
      <point x="330" y="8"/>
      <point x="330" y="33" type="curve" smooth="yes"/>
      <point x="330" y="57"/>
      <point x="311" y="76"/>
      <point x="286" y="76" type="curve" smooth="yes"/>
      <point x="261" y="76"/>
      <point x="242" y="57"/>
      <point x="242" y="33" type="curve" smooth="yes"/>
      <point x="242" y="8"/>
      <point x="261" y="-11"/>
      <point x="286" y="-11" type="curve" smooth="yes"/>
    </contour>
  </outline>
</glyph>
<glyph name="A" format="1">
  <advance width="600"/>
  <unicode hex="0041"/>
  <outline>
    <contour>
      <point x="72" y="0" type="line"/>
      <point x="107" y="0" type="line"/>
      <point x="264" y="700" type="line"/>
      <point x="229" y="700" type="line"/>
    </contour>
    <contour>
      <point x="336" y="700" type="line"/>
      <point x="493" y="0" type="line"/>
      <point x="528" y="0" type="line"/>
      <point x="371" y="700" type="line"/>
    </contour>
    <contour>
      <point x="241" y="668" type="line"/>
      <point x="359" y="668" type="line"/>
      <point x="359" y="700" type="line"/>
      <point x="241" y="700" type="line"/>
    </contour>
    <contour>
      <point x="149" y="244" type="line"/>
      <point x="451" y="244" type="line"/>
      <point x="451" y="276" type="line"/>
      <point x="149" y="276" type="line"/>
    </contour>
  </outline>
</glyph>
<glyph name="B" format="1">
  <advance width="600"/>
  <unicode hex="0042"/>
  <outline>
    <contour>
      <point x="414" y="369"/>
      <point x="479" y="396"/>
      <point x="479" y="529" type="curve" smooth="yes"/>
      <point x="479" y="690"/>
      <point x="388" y="700"/>
      <point x="304" y="700" type="curve" smooth="yes"/>
      <point x="120" y="700" type="line"/>
      <point x="120" y="0" type="line"/>
      <point x="345" y="0" type="line" smooth="yes"/>
      <point x="464" y="0"/>
      <point x="514" y="66"/>
      <point x="514" y="200" type="curve" smooth="yes"/>
      <point x="514" y="346"/>
      <point x="414" y="369"/>
      <point x="414" y="369" type="curve" smooth="yes"/>
    </contour>
    <contour>
      <point x="330" y="668" type="line" smooth="yes"/>
      <point x="388" y="668"/>
      <point x="443" y="643"/>
      <point x="443" y="529" type="curve" smooth="yes"/>
      <point x="443" y="435"/>
      <point x="408" y="377"/>
      <point x="348" y="377" type="curve" smooth="yes"/>
      <point x="153" y="377" type="line"/>
      <point x="153" y="668" type="line"/>
    </contour>
    <contour>
      <point x="153" y="32" type="line"/>
      <point x="153" y="345" type="line"/>
      <point x="368" y="345" type="line" smooth="yes"/>
      <point x="425" y="345"/>
      <point x="480" y="297"/>
      <point x="480" y="200" type="curve" smooth="yes"/>
      <point x="480" y="78"/>
      <point x="433" y="32"/>
      <point x="348" y="32" type="curve" smooth="yes"/>
    </contour>
  </outline>
</glyph>
<glyph name="F" format="1">
  <advance width="600"/>
  <unicode hex="0046"/>
  <outline>
    <contour>
      <point x="184" y="0" type="line"/>
      <point x="184" y="700" type="line"/>
      <point x="151" y="700" type="line"/>
      <point x="151" y="0" type="line"/>
    </contour>
    <contour>
      <point x="183" y="328" type="line"/>
      <point x="485" y="328" type="line"/>
      <point x="485" y="360" type="line"/>
      <point x="183" y="360" type="line"/>
    </contour>
    <contour>
      <point x="183" y="668" type="line"/>
      <point x="525" y="668" type="line"/>
      <point x="525" y="700" type="line"/>
      <point x="183" y="700" type="line"/>
    </contour>
  </outline>
</glyph>
<glyph name="J" format="1">
  <advance width="600"/>
  <unicode hex="004A"/>
  <outline>
    <contour>
      <point x="403" y="700" type="line"/>
      <point x="403" y="191" type="line"/>
      <point x="436" y="171" type="line"/>
      <point x="436" y="700" type="line"/>
    </contour>
    <contour>
      <point x="105" y="19" type="line"/>
      <point x="143" y="3"/>
      <point x="181" y="-9"/>
      <point x="245" y="-9" type="curve"/>
      <point x="361" y="-9"/>
      <point x="436" y="53"/>
      <point x="436" y="171" type="curve"/>
      <point x="403" y="191" type="line"/>
      <point x="403" y="75"/>
      <point x="346" y="24"/>
      <point x="238" y="24" type="curve"/>
      <point x="201" y="24"/>
      <point x="159" y="31"/>
      <point x="126" y="49" type="curve"/>
    </contour>
    <contour>
      <point x="143" y="668" type="line"/>
      <point x="415" y="668" type="line"/>
      <point x="415" y="700" type="line"/>
      <point x="143" y="700" type="line"/>
    </contour>
  </outline>
</glyph>
<glyph name="K" format="1">
  <advance width="600"/>
  <unicode hex="004B"/>
  <outline>
    <contour>
      <point x="166" y="0" type="line"/>
      <point x="166" y="700" type="line"/>
      <point x="133" y="700" type="line"/>
      <point x="133" y="0" type="line"/>
    </contour>
    <contour>
      <point x="165" y="343" type="line"/>
      <point x="267" y="343" type="line"/>
      <point x="267" y="375" type="line"/>
      <point x="165" y="375" type="line"/>
    </contour>
    <contour>
      <point x="242" y="370" type="line"/>
      <point x="267" y="346" type="line"/>
      <point x="506" y="700" type="line"/>
      <point x="464" y="700" type="line"/>
    </contour>
    <contour>
      <point x="523" y="0" type="line"/>
      <point x="269" y="367" type="line"/>
      <point x="227" y="367" type="line"/>
      <point x="481" y="0" type="line"/>
    </contour>
  </outline>
</glyph>
<glyph name="L" format="1">
  <advance width="600"/>
  <unicode hex="004C"/>
  <outline>
    <contour>
      <point x="206" y="0" type="line"/>
      <point x="206" y="700" type="line"/>
      <point x="173" y="700" type="line"/>
      <point x="173" y="0" type="line"/>
    </contour>
    <contour>
      <point x="205" y="0" type="line"/>
      <point x="547" y="0" type="line"/>
      <point x="547" y="32" type="line"/>
      <point x="205" y="32" type="line"/>
    </contour>
  </outline>
</glyph>
<glyph name="N" format="1">
  <advance width="600"/>
  <unicode hex="004E"/>
  <outline>
    <contour>
      <point x="144" y="0" type="line"/>
      <point x="144" y="700" type="line"/>
      <point x="111" y="700" type="line"/>
      <point x="111" y="0" type="line"/>
    </contour>
    <contour>
      <point x="121" y="700" type="line"/>
      <point x="445" y="0" type="line"/>
      <point x="481" y="0" type="line"/>
      <point x="157" y="700" type="line"/>
    </contour>
    <contour>
      <point x="491" y="0" type="line"/>
      <point x="491" y="700" type="line"/>
      <point x="458" y="700" type="line"/>
      <point x="458" y="0" type="line"/>
    </contour>
  </outline>
</glyph>
<glyph name="U" format="1">
  <advance width="600"/>
  <unicode hex="0055"/>
  <outline>
    <contour>
      <point x="438" y="-11"/>
      <point x="505" y="57"/>
      <point x="505" y="284" type="curve" smooth="yes"/>
      <point x="505" y="284"/>
      <point x="505" y="700"/>
      <point x="505" y="700" type="curve" smooth="yes"/>
      <point x="472" y="700" type="line" smooth="yes"/>
      <point x="472" y="700"/>
      <point x="472" y="256"/>
      <point x="472" y="256" type="curve" smooth="yes"/>
      <point x="472" y="81"/>
      <point x="419" y="22"/>
      <point x="301" y="22" type="curve" smooth="yes"/>
      <point x="184" y="22"/>
      <point x="129" y="81"/>
      <point x="129" y="256" type="curve" smooth="yes"/>
      <point x="129" y="256"/>
      <point x="129" y="700"/>
      <point x="129" y="700" type="curve" smooth="yes"/>
      <point x="96" y="700" type="line" smooth="yes"/>
      <point x="96" y="700"/>
      <point x="96" y="284"/>
      <point x="96" y="284" type="curve" smooth="yes"/>
      <point x="96" y="57"/>
      <point x="165" y="-11"/>
      <point x="301" y="-11" type="curve" smooth="yes"/>
    </contour>
  </outline>
</glyph>
<glyph name="X" format="1">
  <advance width="600"/>
  <unicode hex="0058"/>
  <outline>
    <contour>
      <point x="296" y="330" type="line"/>
      <point x="358" y="330" type="line"/>
      <point x="358" y="362" type="line"/>
      <point x="296" y="362" type="line"/>
    </contour>
    <contour>
      <point x="327" y="358" type="line"/>
      <point x="353" y="333" type="line"/>
      <point x="517" y="700" type="line"/>
      <point x="477" y="700" type="line"/>
    </contour>
    <contour>
      <point x="517" y="0" type="line"/>
      <point x="352" y="358" type="line"/>
      <point x="314" y="358" type="line"/>
      <point x="477" y="0" type="line"/>
    </contour>
    <contour>
      <point x="239" y="362" type="line"/>
      <point x="239" y="330" type="line"/>
      <point x="298" y="330" type="line"/>
      <point x="298" y="362" type="line"/>
    </contour>
    <contour>
      <point x="80" y="700" type="line"/>
      <point x="244" y="333" type="line"/>
      <point x="270" y="358" type="line"/>
      <point x="119" y="700" type="line"/>
    </contour>
    <contour>
      <point x="282" y="358" type="line"/>
      <point x="245" y="358" type="line"/>
      <point x="80" y="0" type="line"/>
      <point x="119" y="0" type="line"/>
    </contour>
  </outline>
</glyph>
<glyph name="Y" format="1">
  <advance width="600"/>
  <unicode hex="0059"/>
  <outline>
    <contour>
      <point x="298" y="328" type="line"/>
      <point x="317" y="287" type="line"/>
      <point x="525" y="700" type="line"/>
      <point x="490" y="700" type="line"/>
    </contour>
    <contour>
      <point x="75" y="700" type="line"/>
      <point x="286" y="282" type="line"/>
      <point x="303" y="328" type="line"/>
      <point x="110" y="700" type="line"/>
    </contour>
    <contour>
      <point x="317" y="0" type="line"/>
      <point x="317" y="335" type="line"/>
      <point x="284" y="335" type="line"/>
      <point x="284" y="0" type="line"/>
    </contour>
  </outline>
</glyph>
<glyph name="bracketleft" format="1">
  <advance width="600"/>
  <unicode hex="005B"/>
  <outline>
    <contour>
      <point x="303" y="800" type="line"/>
      <point x="303" y="768" type="line"/>
      <point x="480" y="768" type="line"/>
      <point x="480" y="800" type="line"/>
    </contour>
    <contour>
      <point x="308" y="800" type="line"/>
      <point x="275" y="800" type="line"/>
      <point x="275" y="-200" type="line"/>
      <point x="308" y="-200" type="line"/>
    </contour>
    <contour>
      <point x="303" y="-168" type="line"/>
      <point x="303" y="-200" type="line"/>
      <point x="480" y="-200" type="line"/>
      <point x="480" y="-168" type="line"/>
    </contour>
  </outline>
</glyph>
<glyph name="backslash" format="1">
  <advance width="600"/>
  <unicode hex="005C"/>
  <outline>
    <contour>
      <point x="411" y="-142" type="line"/>
      <point x="441" y="-142" type="line"/>
      <point x="192" y="800" type="line"/>
      <point x="162" y="800" type="line"/>
    </contour>
  </outline>
</glyph>
<glyph name="asciicircum" format="1">
  <advance width="600"/>
  <unicode hex="005E"/>
  <outline>
    <contour>
      <point x="426" y="580" type="line"/>
      <point x="342" y="800" type="line"/>
      <point x="264" y="800" type="line"/>
      <point x="180" y="580" type="line"/>
      <point x="213" y="580" type="line"/>
      <point x="286" y="770" type="line"/>
      <point x="320" y="770" type="line"/>
      <point x="393" y="580" type="line"/>
    </contour>
  </outline>
</glyph>
<glyph name="b" format="1">
  <advance width="600"/>
  <unicode hex="0062"/>
  <outline>
    <contour>
      <point x="160" y="0" type="line"/>
      <point x="160" y="71" type="line"/>
      <point x="160" y="800" type="line"/>
      <point x="127" y="800" type="line"/>
      <point x="127" y="0" type="line"/>
    </contour>
    <contour>
      <point x="158" y="312" type="line"/>
      <point x="171" y="385"/>
      <point x="235" y="478"/>
      <point x="327" y="478" type="curve" smooth="yes"/>
      <point x="416" y="478"/>
      <point x="471" y="416"/>
      <point x="471" y="251" type="curve"/>
      <point x="504" y="251" type="line"/>
      <point x="504" y="434"/>
      <point x="430" y="511"/>
      <point x="334" y="511" type="curve" smooth="yes"/>
      <point x="209" y="511"/>
      <point x="135" y="404"/>
      <point x="135" y="292" type="curve"/>
    </contour>
    <contour>
      <point x="135" y="104"/>
      <point x="193" y="-11"/>
      <point x="324" y="-11" type="curve" smooth="yes"/>
      <point x="420" y="-11"/>
      <point x="504" y="68"/>
      <point x="504" y="251" type="curve"/>
      <point x="471" y="251" type="line"/>
      <point x="471" y="89"/>
      <point x="407" y="22"/>
      <point x="318" y="22" type="curve" smooth="yes"/>
      <point x="226" y="22"/>
      <point x="169" y="117"/>
      <point x="158" y="200" type="curve"/>
      <point x="135" y="216" type="line"/>
    </contour>
  </outline>
</glyph>
<glyph name="c" format="1">
  <advance width="600"/>
  <unicode hex="0063"/>
  <outline>
    <contour>
      <point x="479" y="106" type="line"/>
      <point x="461" y="69"/>
      <point x="418" y="22"/>
      <point x="340" y="22" type="curve" smooth="yes"/>
      <point x="257" y="22"/>
      <point x="164" y="94"/>
      <point x="164" y="251" type="curve" smooth="yes"/>
      <point x="164" y="410"/>
      <point x="257" y="479"/>
      <point x="340" y="479" type="curve" smooth="yes"/>
      <point x="418" y="479"/>
      <point x="455" y="446"/>
      <point x="481" y="392" type="curve"/>
      <point x="512" y="408" type="line"/>
      <point x="485" y="461"/>
      <point x="437" y="512"/>
      <point x="340" y="512" type="curve" smooth="yes"/>
      <point x="243" y="512"/>
      <point x="128" y="444"/>
      <point x="128" y="251" type="curve" smooth="yes"/>
      <point x="128" y="60"/>
      <point x="243" y="-11"/>
      <point x="340" y="-11" type="curve" smooth="yes"/>
      <point x="437" y="-11"/>
      <point x="494" y="52"/>
      <point x="512" y="89" type="curve"/>
    </contour>
  </outline>
</glyph>
<glyph name="e" format="1">
  <advance width="600"/>
  <unicode hex="0065"/>
  <outline>
    <contour>
      <point x="485" y="111" type="line"/>
      <point x="466" y="77"/>
      <point x="420" y="22"/>
      <point x="327" y="22" type="curve" smooth="yes"/>
      <point x="214" y="22"/>
      <point x="152" y="106"/>
      <point x="152" y="251" type="curve" smooth="yes"/>
      <point x="152" y="408"/>
      <point x="235" y="479"/>
      <point x="328" y="479" type="curve" smooth="yes"/>
      <point x="442" y="479"/>
      <point x="488" y="373"/>
      <point x="485" y="281" type="curve"/>
      <point x="524" y="249" type="line"/>
      <point x="534" y="389"/>
      <point x="470" y="512"/>
      <point x="330" y="512" type="curve" smooth="yes"/>
      <point x="222" y="512"/>
      <point x="115" y="434"/>
      <point x="115" y="251" type="curve" smooth="yes"/>
      <point x="115" y="70"/>
      <point x="208" y="-11"/>
      <point x="327" y="-11" type="curve" smooth="yes"/>
      <point x="436" y="-11"/>
      <point x="497" y="56"/>
      <point x="520" y="92" type="curve"/>
    </contour>
    <contour>
      <point x="148" y="249" type="line"/>
      <point x="524" y="249" type="line"/>
      <point x="490" y="281" type="line"/>
      <point x="148" y="281" type="line"/>
    </contour>
  </outline>
</glyph>
<glyph name="h" format="1">
  <advance width="600"/>
  <unicode hex="0068"/>
  <outline>
    <contour>
      <point x="148" y="0" type="line"/>
      <point x="148" y="800" type="line"/>
      <point x="115" y="800" type="line"/>
      <point x="115" y="0" type="line"/>
    </contour>
    <contour>
      <point x="148" y="312" type="line"/>
      <point x="152" y="408"/>
      <point x="243" y="479"/>
      <point x="333" y="479" type="curve" smooth="yes"/>
      <point x="431" y="479"/>
      <point x="451" y="419"/>
      <point x="451" y="282" type="curve" smooth="yes"/>
      <point x="451" y="0" type="line"/>
      <point x="484" y="0" type="line"/>
      <point x="484" y="292" type="line" smooth="yes"/>
      <point x="484" y="455"/>
      <point x="448" y="512"/>
      <point x="337" y="512" type="curve" smooth="yes"/>
      <point x="207" y="512"/>
      <point x="118" y="413"/>
      <point x="117" y="312" type="curve"/>
    </contour>
  </outline>
</glyph>
<glyph name="i" format="1">
  <advance width="600"/>
  <unicode hex="0069"/>
  <outline>
    <contour>
      <point x="85" y="468" type="line"/>
      <point x="284" y="468" type="line"/>
      <point x="284" y="500" type="line"/>
      <point x="85" y="500" type="line"/>
    </contour>
    <contour>
      <point x="312" y="26" type="line"/>
      <point x="312" y="500" type="line"/>
      <point x="279" y="500" type="line"/>
      <point x="279" y="1" type="line"/>
    </contour>
    <contour>
      <point x="279" y="0" type="line"/>
      <point x="481" y="0" type="line"/>
      <point x="481" y="32" type="line"/>
      <point x="279" y="32" type="line"/>
    </contour>
    <contour>
      <point x="319" y="653"/>
      <point x="339" y="673"/>
      <point x="339" y="698" type="curve" smooth="yes"/>
      <point x="339" y="723"/>
      <point x="319" y="743"/>
      <point x="294" y="743" type="curve" smooth="yes"/>
      <point x="269" y="743"/>
      <point x="249" y="723"/>
      <point x="249" y="698" type="curve" smooth="yes"/>
      <point x="249" y="673"/>
      <point x="269" y="653"/>
      <point x="294" y="653" type="curve" smooth="yes"/>
    </contour>
  </outline>
</glyph>
<glyph name="m" format="1">
  <advance width="600"/>
  <unicode hex="006D"/>
  <outline>
    <contour>
      <point x="546" y="0" type="line"/>
      <point x="546" y="332" type="line" smooth="yes"/>
      <point x="546" y="475"/>
      <point x="518" y="511"/>
      <point x="446" y="511" type="curve" smooth="yes"/>
      <point x="356" y="511"/>
      <point x="293" y="424"/>
      <point x="293" y="312" type="curve"/>
      <point x="320" y="352" type="line"/>
      <point x="327" y="391"/>
      <point x="370" y="478"/>
      <point x="441" y="478" type="curve" smooth="yes"/>
      <point x="499" y="478"/>
      <point x="513" y="451"/>
      <point x="513" y="322" type="curve" smooth="yes"/>
      <point x="513" y="0" type="line"/>
    </contour>
    <contour>
      <point x="101" y="0" type="line"/>
      <point x="101" y="402" type="line"/>
      <point x="101" y="402"/>
      <point x="101" y="500"/>
      <point x="101" y="500" type="curve"/>
      <point x="68" y="500" type="line"/>
      <point x="68" y="500"/>
      <point x="68" y="436"/>
      <point x="68" y="345" type="curve"/>
      <point x="68" y="0" type="line"/>
    </contour>
    <contour>
      <point x="320" y="0" type="line"/>
      <point x="320" y="352" type="line" smooth="yes"/>
      <point x="320" y="352"/>
      <point x="320" y="362"/>
      <point x="320" y="387" type="curve" smooth="yes"/>
      <point x="320" y="475"/>
      <point x="295" y="511"/>
      <point x="225" y="511" type="curve" smooth="yes"/>
      <point x="142" y="511"/>
      <point x="73" y="424"/>
      <point x="73" y="312" type="curve"/>
      <point x="101" y="352" type="line"/>
      <point x="108" y="389"/>
      <point x="152" y="478"/>
      <point x="222" y="478" type="curve" smooth="yes"/>
      <point x="284" y="478"/>
      <point x="287" y="451"/>
      <point x="287" y="322" type="curve" smooth="yes"/>
      <point x="287" y="0" type="line"/>
    </contour>
  </outline>
</glyph>
<glyph name="n" format="1">
  <advance width="600"/>
  <unicode hex="006E"/>
  <outline>
    <contour>
      <point x="164" y="331" type="line"/>
      <point x="167" y="394"/>
      <point x="263" y="478"/>
      <point x="345" y="478" type="curve" smooth="yes"/>
      <point x="417" y="478"/>
      <point x="457" y="459"/>
      <point x="457" y="320" type="curve" smooth="yes"/>
      <point x="457" y="0" type="line"/>
      <point x="490" y="0" type="line"/>
      <point x="490" y="332" type="line" smooth="yes"/>
      <point x="490" y="455"/>
      <point x="459" y="511"/>
      <point x="353" y="511" type="curve" smooth="yes"/>
      <point x="236" y="511"/>
      <point x="134" y="414"/>
      <point x="134" y="312" type="curve"/>
    </contour>
    <contour>
      <point x="131" y="500" type="line"/>
      <point x="131" y="500"/>
      <point x="131" y="436"/>
      <point x="131" y="345" type="curve"/>
      <point x="131" y="0" type="line"/>
      <point x="164" y="0" type="line"/>
      <point x="164" y="402" type="line"/>
      <point x="164" y="402"/>
      <point x="164" y="500"/>
      <point x="164" y="500" type="curve"/>
    </contour>
  </outline>
</glyph>
<glyph name="o" format="1">
  <advance width="600"/>
  <unicode hex="006F"/>
  <outline>
    <contour>
      <point x="409" y="-11"/>
      <point x="497" y="58"/>
      <point x="497" y="251" type="curve" smooth="yes"/>
      <point x="497" y="443"/>
      <point x="409" y="512"/>
      <point x="303" y="512" type="curve" smooth="yes"/>
      <point x="196" y="512"/>
      <point x="108" y="443"/>
      <point x="108" y="251" type="curve" smooth="yes"/>
      <point x="108" y="58"/>
      <point x="196" y="-11"/>
      <point x="303" y="-11" type="curve" smooth="yes"/>
    </contour>
    <contour>
      <point x="220" y="22"/>
      <point x="144" y="72"/>
      <point x="144" y="251" type="curve" smooth="yes"/>
      <point x="144" y="427"/>
      <point x="220" y="479"/>
      <point x="303" y="479" type="curve" smooth="yes"/>
      <point x="385" y="479"/>
      <point x="461" y="427"/>
      <point x="461" y="251" type="curve" smooth="yes"/>
      <point x="461" y="72"/>
      <point x="385" y="22"/>
      <point x="303" y="22" type="curve" smooth="yes"/>
    </contour>
  </outline>
</glyph>
<glyph name="s" format="1">
  <advance width="600"/>
  <unicode hex="0073"/>
  <outline>
    <contour>
      <point x="402" y="-11"/>
      <point x="503" y="39"/>
      <point x="504" y="140" type="curve" smooth="yes"/>
      <point x="505" y="240"/>
      <point x="356" y="270"/>
      <point x="309" y="282" type="curve" smooth="yes"/>
      <point x="275" y="291"/>
      <point x="160" y="305"/>
      <point x="160" y="383" type="curve" smooth="yes"/>
      <point x="160" y="462"/>
      <point x="263" y="479"/>
      <point x="311" y="479" type="curve" smooth="yes"/>
      <point x="359" y="479"/>
      <point x="421" y="467"/>
      <point x="448" y="423" type="curve"/>
      <point x="483" y="445" type="line"/>
      <point x="463" y="481"/>
      <point x="396" y="512"/>
      <point x="311" y="512" type="curve" smooth="yes"/>
      <point x="226" y="512"/>
      <point x="122" y="473"/>
      <point x="122" y="383" type="curve" smooth="yes"/>
      <point x="122" y="285"/>
      <point x="252" y="262"/>
      <point x="300" y="248" type="curve" smooth="yes"/>
      <point x="342" y="236"/>
      <point x="466" y="213"/>
      <point x="466" y="140" type="curve" smooth="yes"/>
      <point x="466" y="51"/>
      <point x="374" y="22"/>
      <point x="304" y="22" type="curve" smooth="yes"/>
      <point x="234" y="22"/>
      <point x="169" y="41"/>
      <point x="139" y="75" type="curve"/>
      <point x="105" y="50" type="line"/>
      <point x="141" y="14"/>
      <point x="217" y="-11"/>
      <point x="302" y="-11" type="curve" smooth="yes"/>
    </contour>
  </outline>
</glyph>
<glyph name="t" format="1">
  <advance width="600"/>
  <unicode hex="0074"/>
  <outline>
    <contour>
      <point x="273" y="96" type="line"/>
      <point x="273" y="680" type="line"/>
      <point x="240" y="680" type="line"/>
      <point x="240" y="86" type="line"/>
    </contour>
    <contour>
      <point x="398" y="-11"/>
      <point x="427" y="-1"/>
      <point x="435" y="0" type="curve"/>
      <point x="435" y="32" type="line"/>
      <point x="427" y="30"/>
      <point x="381" y="20"/>
      <point x="346" y="20" type="curve"/>
      <point x="311" y="20"/>
      <point x="273" y="33"/>
      <point x="273" y="96" type="curve"/>
      <point x="240" y="86" type="line"/>
      <point x="240" y="33"/>
      <point x="274" y="-11"/>
      <point x="341" y="-11" type="curve"/>
    </contour>
    <contour>
      <point x="472" y="468" type="line"/>
      <point x="472" y="500" type="line"/>
      <point x="80" y="500" type="line"/>
      <point x="80" y="468" type="line"/>
    </contour>
  </outline>
</glyph>
<glyph name="v" format="1">
  <advance width="600"/>
  <unicode hex="0076"/>
  <outline>
    <contour>
      <point x="128" y="500" type="line"/>
      <point x="250" y="0" type="line"/>
      <point x="284" y="0" type="line"/>
      <point x="165" y="500" type="line"/>
    </contour>
    <contour>
      <point x="439" y="500" type="line"/>
      <point x="320" y="0" type="line"/>
      <point x="354" y="0" type="line"/>
      <point x="476" y="500" type="line"/>
    </contour>
    <contour>
      <point x="342" y="0" type="line"/>
      <point x="342" y="32" type="line"/>
      <point x="262" y="32" type="line"/>
      <point x="262" y="0" type="line"/>
    </contour>
  </outline>
</glyph>
<glyph name="w" format="1">
  <advance width="600"/>
  <unicode hex="0077"/>
  <outline>
    <contour>
      <point x="138" y="0" type="line"/>
      <point x="169" y="0" type="line"/>
      <point x="108" y="500" type="line"/>
      <point x="75" y="500" type="line"/>
    </contour>
    <contour>
      <point x="427" y="0" type="line"/>
      <point x="458" y="0" type="line"/>
      <point x="521" y="500" type="line"/>
      <point x="488" y="500" type="line"/>
    </contour>
    <contour>
      <point x="308" y="500" type="line"/>
      <point x="277" y="500" type="line"/>
      <point x="159" y="0" type="line"/>
      <point x="190" y="0" type="line"/>
    </contour>
    <contour>
      <point x="437" y="0" type="line"/>
      <point x="319" y="500" type="line"/>
      <point x="288" y="500" type="line"/>
      <point x="406" y="0" type="line"/>
    </contour>
  </outline>
</glyph>
<glyph name="y" format="1">
  <advance width="600"/>
  <unicode hex="0079"/>
  <outline>
    <contour>
      <point x="132" y="500" type="line"/>
      <point x="312" y="0" type="line"/>
      <point x="333" y="43" type="line"/>
      <point x="172" y="500" type="line"/>
    </contour>
    <contour>
      <point x="473" y="500" type="line"/>
      <point x="322" y="41" type="line"/>
      <point x="341" y="0" type="line"/>
      <point x="513" y="500" type="line"/>
    </contour>
    <contour>
      <point x="130" y="-189" type="line"/>
      <point x="135" y="-190"/>
      <point x="149" y="-192"/>
      <point x="162" y="-192" type="curve"/>
      <point x="233" y="-192"/>
      <point x="297" y="-118"/>
      <point x="341" y="0" type="curve"/>
      <point x="323" y="43" type="line"/>
      <point x="313" y="19" type="line"/>
      <point x="278" y="-83"/>
      <point x="226" y="-159"/>
      <point x="161" y="-159" type="curve"/>
      <point x="149" y="-159"/>
      <point x="139" y="-157"/>
      <point x="139" y="-157" type="curve"/>
    </contour>
  </outline>
</glyph>
<glyph name="bar" format="1">
  <advance width="600"/>
  <unicode hex="007C"/>
  <outline>
    <contour>
      <point x="282" y="-130" type="line"/>
      <point x="313" y="-130" type="line"/>
      <point x="313" y="800" type="line"/>
      <point x="282" y="800" type="line"/>
    </contour>
  </outline>
</glyph>
<glyph name="sterling" format="1">
  <advance width="600"/>
  <unicode hex="00A3"/>
  <outline>
    <contour>
      <point x="213" y="51"/>
      <point x="250" y="177"/>
      <point x="235" y="291" type="curve" smooth="yes"/>
      <point x="227" y="353"/>
      <point x="188" y="440"/>
      <point x="188" y="505" type="curve" smooth="yes"/>
      <point x="188" y="640"/>
      <point x="276" y="675"/>
      <point x="350" y="675" type="curve" smooth="yes"/>
      <point x="435" y="675"/>
      <point x="470" y="631"/>
      <point x="493" y="597" type="curve"/>
      <point x="522" y="615" type="line"/>
      <point x="493" y="662"/>
      <point x="445" y="706"/>
      <point x="350" y="706" type="curve" smooth="yes"/>
      <point x="228" y="706"/>
      <point x="153" y="626"/>
      <point x="153" y="505" type="curve" smooth="yes"/>
      <point x="153" y="426"/>
      <point x="196" y="341"/>
      <point x="204" y="280" type="curve" smooth="yes"/>
      <point x="217" y="184"/>
      <point x="176" y="69"/>
      <point x="128" y="31" type="curve"/>
      <point x="146" y="12" type="line"/>
    </contour>
    <contour>
      <point x="153" y="-3"/>
      <point x="212" y="14"/>
      <point x="261" y="13" type="curve" smooth="yes"/>
      <point x="315" y="12"/>
      <point x="357" y="-11"/>
      <point x="423" y="-13" type="curve" smooth="yes"/>
      <point x="477" y="-15"/>
      <point x="514" y="-3"/>
      <point x="514" y="-3" type="curve"/>
      <point x="504" y="29" type="line"/>
      <point x="504" y="29"/>
      <point x="469" y="15"/>
      <point x="423" y="17" type="curve" smooth="yes"/>
      <point x="367" y="19"/>
      <point x="344" y="41"/>
      <point x="279" y="43" type="curve" smooth="yes"/>
      <point x="221" y="45"/>
      <point x="177" y="34"/>
      <point x="146" y="18" type="curve"/>
      <point x="146" y="18"/>
      <point x="131" y="31"/>
      <point x="128" y="31" type="curve"/>
      <point x="142" y="-6" type="line"/>
    </contour>
    <contour>
      <point x="435" y="332" type="line"/>
      <point x="435" y="364" type="line"/>
      <point x="66" y="364" type="line"/>
      <point x="66" y="332" type="line"/>
    </contour>
  </outline>
</glyph>
<glyph name="yen" format="1">
  <advance width="600"/>
  <unicode hex="00A5"/>
  <outline>
    <contour>
      <point x="300" y="346" type="line"/>
      <point x="317" y="297" type="line"/>
      <point x="485" y="700" type="line"/>
      <point x="448" y="700" type="line"/>
    </contour>
    <contour>
      <point x="115" y="700" type="line"/>
      <point x="286" y="292" type="line"/>
      <point x="300" y="346" type="line"/>
      <point x="152" y="700" type="line"/>
    </contour>
    <contour>
      <point x="317" y="0" type="line"/>
      <point x="317" y="346" type="line"/>
      <point x="284" y="346" type="line"/>
      <point x="284" y="0" type="line"/>
    </contour>
    <contour>
      <point x="136" y="287" type="line"/>
      <point x="465" y="287" type="line"/>
      <point x="465" y="319" type="line"/>
      <point x="136" y="319" type="line"/>
    </contour>
    <contour>
      <point x="136" y="157" type="line"/>
      <point x="465" y="157" type="line"/>
      <point x="465" y="189" type="line"/>
      <point x="136" y="189" type="line"/>
    </contour>
  </outline>
</glyph>
<glyph name="brokenbar" format="1">
  <advance width="600"/>
  <unicode hex="00A6"/>
  <outline>
    <contour>
      <point x="281" y="213" type="line"/>
      <point x="281" y="-130" type="line"/>
      <point x="314" y="-130" type="line"/>
      <point x="314" y="213" type="line"/>
    </contour>
    <contour>
      <point x="314" y="453" type="line"/>
      <point x="314" y="800" type="line"/>
      <point x="281" y="800" type="line"/>
      <point x="281" y="453" type="line"/>
    </contour>
  </outline>
</glyph>
<glyph name="section" format="1">
  <advance width="600"/>
  <unicode hex="00A7"/>
  <outline>
    <contour>
      <point x="291" y="439" type="line"/>
      <point x="208" y="427"/>
      <point x="116" y="399"/>
      <point x="116" y="316" type="curve" smooth="yes"/>
      <point x="116" y="217"/>
      <point x="217" y="193"/>
      <point x="291" y="168" type="curve" smooth="yes"/>
      <point x="351" y="148"/>
      <point x="462" y="110"/>
      <point x="462" y="37" type="curve" smooth="yes"/>
      <point x="462" y="-51"/>
      <point x="379" y="-78"/>
      <point x="291" y="-78" type="curve" smooth="yes"/>
      <point x="204" y="-78"/>
      <point x="136" y="-52"/>
      <point x="115" y="-6" type="curve"/>
      <point x="84" y="-22" type="line"/>
      <point x="103" y="-69"/>
      <point x="182" y="-109"/>
      <point x="291" y="-109" type="curve" smooth="yes"/>
      <point x="407" y="-109"/>
      <point x="495" y="-66"/>
      <point x="495" y="40" type="curve" smooth="yes"/>
      <point x="495" y="144"/>
      <point x="355" y="178"/>
      <point x="297" y="197" type="curve" smooth="yes"/>
      <point x="240" y="216"/>
      <point x="149" y="243"/>
      <point x="149" y="317" type="curve" smooth="yes"/>
      <point x="149" y="391"/>
      <point x="265" y="413"/>
      <point x="317" y="413" type="curve" smooth="yes"/>
      <point x="326" y="413"/>
      <point x="321" y="413"/>
      <point x="330" y="412" type="curve"/>
    </contour>
    <contour>
      <point x="339" y="159" type="line"/>
      <point x="363" y="163"/>
      <point x="495" y="186"/>
      <point x="495" y="288" type="curve" smooth="yes"/>
      <point x="495" y="390"/>
      <point x="354" y="423"/>
      <point x="297" y="443" type="curve" smooth="yes"/>
      <point x="250" y="460"/>
      <point x="160" y="490"/>
      <point x="160" y="566" type="curve" smooth="yes"/>
      <point x="160" y="652"/>
      <point x="238" y="675"/>
      <point x="310" y="675" type="curve" smooth="yes"/>
      <point x="392" y="675"/>
      <point x="447" y="653"/>
      <point x="468" y="604" type="curve"/>
      <point x="501" y="618" type="line"/>
      <point x="482" y="665"/>
      <point x="412" y="706"/>
      <point x="310" y="706" type="curve" smooth="yes"/>
      <point x="212" y="706"/>
      <point x="126" y="660"/>
      <point x="126" y="565" type="curve" smooth="yes"/>
      <point x="126" y="471"/>
      <point x="235" y="430"/>
      <point x="291" y="413" type="curve" smooth="yes"/>
      <point x="350" y="395"/>
      <point x="463" y="360"/>
      <point x="463" y="288" type="curve" smooth="yes"/>
      <point x="463" y="216"/>
      <point x="359" y="185"/>
      <point x="298" y="178" type="curve"/>
    </contour>
  </outline>
</glyph>
<glyph name="copyright" format="1">
  <advance width="600"/>
  <unicode hex="00A9"/>
  <outline>
    <contour>
      <point x="423" y="60"/>
      <point x="551" y="131"/>
      <point x="551" y="349" type="curve" smooth="yes"/>
      <point x="551" y="566"/>
      <point x="423" y="637"/>
      <point x="297" y="637" type="curve" smooth="yes"/>
      <point x="170" y="637"/>
      <point x="42" y="566"/>
      <point x="42" y="349" type="curve" smooth="yes"/>
      <point x="42" y="131"/>
      <point x="170" y="60"/>
      <point x="297" y="60" type="curve" smooth="yes"/>
    </contour>
    <contour>
      <point x="160" y="91"/>
      <point x="75" y="178"/>
      <point x="75" y="349" type="curve" smooth="yes"/>
      <point x="75" y="519"/>
      <point x="160" y="606"/>
      <point x="297" y="606" type="curve" smooth="yes"/>
      <point x="433" y="606"/>
      <point x="517" y="519"/>
      <point x="517" y="349" type="curve" smooth="yes"/>
      <point x="517" y="178"/>
      <point x="433" y="91"/>
      <point x="297" y="91" type="curve" smooth="yes"/>
    </contour>
    <contour>
      <point x="385" y="260" type="line"/>
      <point x="372" y="239"/>
      <point x="344" y="221"/>
      <point x="307" y="221" type="curve" smooth="yes"/>
      <point x="238" y="221"/>
      <point x="200" y="273"/>
      <point x="200" y="348" type="curve" smooth="yes"/>
      <point x="200" y="424"/>
      <point x="238" y="476"/>
      <point x="307" y="476" type="curve" smooth="yes"/>
      <point x="343" y="476"/>
      <point x="379" y="455"/>
      <point x="389" y="428" type="curve"/>
      <point x="415" y="442" type="line"/>
      <point x="406" y="464"/>
      <point x="374" y="502"/>
      <point x="309" y="502" type="curve" smooth="yes"/>
      <point x="234" y="502"/>
      <point x="168" y="462"/>
      <point x="168" y="348" type="curve" smooth="yes"/>
      <point x="168" y="235"/>
      <point x="234" y="194"/>
      <point x="309" y="194" type="curve" smooth="yes"/>
      <point x="357" y="194"/>
      <point x="398" y="219"/>
      <point x="412" y="245" type="curve"/>
    </contour>
  </outline>
</glyph>
<glyph name="degree" format="1">
  <advance width="600"/>
  <unicode hex="00B0"/>
  <outline>
    <contour>
      <point x="314" y="539"/>
      <point x="360" y="585"/>
      <point x="360" y="644" type="curve" smooth="yes"/>
      <point x="360" y="702"/>
      <point x="314" y="748"/>
      <point x="256" y="748" type="curve" smooth="yes"/>
      <point x="197" y="748"/>
      <point x="151" y="702"/>
      <point x="151" y="644" type="curve" smooth="yes"/>
      <point x="151" y="585"/>
      <point x="197" y="539"/>
      <point x="256" y="539" type="curve" smooth="yes"/>
    </contour>
    <contour>
      <point x="214" y="570"/>
      <point x="182" y="602"/>
      <point x="182" y="644" type="curve" smooth="yes"/>
      <point x="182" y="685"/>
      <point x="214" y="717"/>
      <point x="256" y="717" type="curve" smooth="yes"/>
      <point x="297" y="717"/>
      <point x="329" y="685"/>
      <point x="329" y="644" type="curve" smooth="yes"/>
      <point x="329" y="602"/>
      <point x="297" y="570"/>
      <point x="256" y="570" type="curve" smooth="yes"/>
    </contour>
  </outline>
</glyph>
<glyph name="plusminus" format="1">
  <advance width="600"/>
  <unicode hex="00B1"/>
  <outline>
    <contour>
      <point x="99" y="360" type="line"/>
      <point x="506" y="360" type="line"/>
      <point x="506" y="386" type="line"/>
      <point x="99" y="386" type="line"/>
    </contour>
    <contour>
      <point x="321" y="219" type="line"/>
      <point x="321" y="526" type="line"/>
      <point x="285" y="526" type="line"/>
      <point x="285" y="219" type="line"/>
    </contour>
    <contour>
      <point x="99" y="112" type="line"/>
      <point x="506" y="112" type="line"/>
      <point x="506" y="138" type="line"/>
      <point x="99" y="138" type="line"/>
    </contour>
  </outline>
</glyph>
<glyph name="acute" format="1">
  <advance width="600"/>
  <unicode hex="00B4"/>
  <outline>
    <contour>
      <point x="250" y="609" type="line"/>
      <point x="381" y="740" type="line"/>
      <point x="329" y="740" type="line"/>
      <point x="219" y="609" type="line"/>
    </contour>
  </outline>
</glyph>
<glyph name="paragraph" format="1">
  <advance width="600"/>
  <unicode hex="00B6"/>
  <outline>
    <contour>
      <point x="287" y="340" type="line"/>
      <point x="287" y="-120" type="line"/>
      <point x="320" y="-120" type="line"/>
      <point x="320" y="700" type="line"/>
      <point x="274" y="700" type="line" smooth="yes"/>
      <point x="180" y="700"/>
      <point x="66" y="645"/>
      <point x="66" y="524" type="curve" smooth="yes"/>
      <point x="66" y="393"/>
      <point x="180" y="340"/>
      <point x="254" y="340" type="curve" smooth="yes"/>
    </contour>
    <contour>
      <point x="489" y="-120" type="line"/>
      <point x="489" y="700" type="line"/>
      <point x="456" y="700" type="line"/>
      <point x="456" y="-120" type="line"/>
    </contour>
    <contour>
      <point x="287" y="668" type="line"/>
      <point x="477" y="668" type="line"/>
      <point x="477" y="700" type="line"/>
      <point x="287" y="700" type="line"/>
    </contour>
  </outline>
</glyph>
<glyph name="cedilla" format="1">
  <advance width="600"/>
  <unicode hex="00B8"/>
  <outline>
    <contour>
      <point x="237" y="-80" type="line"/>
      <point x="263" y="-88" type="line"/>
      <point x="296" y="0" type="line"/>
      <point x="264" y="0" type="line"/>
    </contour>
    <contour>
      <point x="289" y="-72"/>
      <point x="370" y="-49"/>
      <point x="372" y="-102" type="curve" smooth="yes"/>
      <point x="374" y="-159"/>
      <point x="287" y="-183"/>
      <point x="208" y="-161" type="curve"/>
      <point x="197" y="-192" type="line"/>
      <point x="300" y="-218"/>
      <point x="410" y="-186"/>
      <point x="409" y="-95" type="curve" smooth="yes"/>
      <point x="408" y="-27"/>
      <point x="314" y="-31"/>
      <point x="274" y="-57" type="curve"/>
      <point x="263" y="-88" type="line"/>
    </contour>
  </outline>
</glyph>
<glyph name="AE" format="1">
  <advance width="600"/>
  <unicode hex="00C6"/>
  <outline>
    <contour>
      <point x="348" y="0" type="line"/>
      <point x="348" y="700" type="line"/>
      <point x="315" y="700" type="line"/>
      <point x="315" y="0" type="line"/>
    </contour>
    <contour>
      <point x="347" y="0" type="line"/>
      <point x="579" y="0" type="line"/>
      <point x="579" y="32" type="line"/>
      <point x="347" y="32" type="line"/>
    </contour>
    <contour>
      <point x="347" y="328" type="line"/>
      <point x="525" y="328" type="line"/>
      <point x="525" y="360" type="line"/>
      <point x="347" y="360" type="line"/>
    </contour>
    <contour>
      <point x="347" y="668" type="line"/>
      <point x="579" y="668" type="line"/>
      <point x="579" y="700" type="line"/>
      <point x="347" y="700" type="line"/>
    </contour>
    <contour>
      <point x="29" y="0" type="line"/>
      <point x="64" y="0" type="line"/>
      <point x="278" y="700" type="line"/>
      <point x="243" y="700" type="line"/>
    </contour>
    <contour>
      <point x="238" y="668" type="line"/>
      <point x="325" y="668" type="line"/>
      <point x="343" y="700" type="line"/>
      <point x="255" y="700" type="line"/>
    </contour>
    <contour>
      <point x="103" y="244" type="line"/>
      <point x="335" y="244" type="line"/>
      <point x="339" y="276" type="line"/>
      <point x="120" y="276" type="line"/>
    </contour>
  </outline>
</glyph>
<glyph name="ae" format="1">
  <advance width="600"/>
  <unicode hex="00E6"/>
  <outline>
    <contour>
      <point x="301" y="-11"/>
      <point x="321" y="76"/>
      <point x="321" y="76" type="curve"/>
      <point x="301" y="109" type="line"/>
      <point x="294" y="75"/>
      <point x="255" y="21"/>
      <point x="185" y="21" type="curve"/>
      <point x="113" y="21"/>
      <point x="65" y="48"/>
      <point x="65" y="143" type="curve"/>
      <point x="32" y="143" type="line"/>
      <point x="32" y="36"/>
      <point x="83" y="-11"/>
      <point x="182" y="-11" type="curve"/>
    </contour>
    <contour>
      <point x="65" y="143" type="line"/>
      <point x="65" y="240"/>
      <point x="149" y="249"/>
      <point x="220" y="249" type="curve"/>
      <point x="208" y="281" type="line"/>
      <point x="111" y="281"/>
      <point x="32" y="254"/>
      <point x="32" y="143" type="curve"/>
    </contour>
    <contour>
      <point x="290" y="249" type="line"/>
      <point x="290" y="281" type="line"/>
      <point x="208" y="281" type="line"/>
      <point x="220" y="249" type="line"/>
    </contour>
    <contour>
      <point x="66" y="438" type="line"/>
      <point x="85" y="455"/>
      <point x="113" y="479"/>
      <point x="174" y="479" type="curve"/>
      <point x="247" y="479"/>
      <point x="286" y="400"/>
      <point x="286" y="341" type="curve"/>
      <point x="316" y="355" type="line"/>
      <point x="316" y="447"/>
      <point x="260" y="512"/>
      <point x="174" y="512" type="curve"/>
      <point x="102" y="512"/>
      <point x="55" y="481"/>
      <point x="40" y="468" type="curve"/>
    </contour>
    <contour>
      <point x="319" y="255" type="line"/>
      <point x="319" y="361" type="line"/>
      <point x="286" y="341" type="line"/>
      <point x="286" y="257" type="line"/>
    </contour>
    <contour>
      <point x="549" y="107" type="line"/>
      <point x="538" y="77"/>
      <point x="513" y="22"/>
      <point x="444" y="22" type="curve" smooth="yes"/>
      <point x="342" y="22"/>
      <point x="321" y="112"/>
      <point x="321" y="251" type="curve" smooth="yes"/>
      <point x="321" y="394"/>
      <point x="356" y="479"/>
      <point x="439" y="479" type="curve" smooth="yes"/>
      <point x="533" y="479"/>
      <point x="536" y="370"/>
      <point x="536" y="281" type="curve"/>
      <point x="570" y="249" type="line"/>
      <point x="580" y="419"/>
      <point x="550" y="512"/>
      <point x="439" y="512" type="curve" smooth="yes"/>
      <point x="352" y="512"/>
      <point x="286" y="454"/>
      <point x="286" y="257" type="curve" smooth="yes"/>
      <point x="286" y="64"/>
      <point x="332" y="-11"/>
      <point x="442" y="-11" type="curve" smooth="yes"/>
      <point x="503" y="-11"/>
      <point x="549" y="19"/>
      <point x="580" y="93" type="curve"/>
    </contour>
    <contour>
      <point x="317" y="249" type="line"/>
      <point x="570" y="249" type="line"/>
      <point x="540" y="281" type="line"/>
      <point x="317" y="281" type="line"/>
    </contour>
  </outline>
</glyph>
<glyph name="divide" format="1">
  <advance width="600"/>
  <unicode hex="00F7"/>
  <outline>
    <contour>
      <point x="119" y="288" type="line"/>
      <point x="486" y="288" type="line"/>
      <point x="486" y="320" type="line"/>
      <point x="119" y="320" type="line"/>
    </contour>
    <contour>
      <point x="319" y="130"/>
      <point x="335" y="147"/>
      <point x="335" y="168" type="curve" smooth="yes"/>
      <point x="335" y="188"/>
      <point x="319" y="205"/>
      <point x="298" y="205" type="curve" smooth="yes"/>
      <point x="277" y="205"/>
      <point x="261" y="188"/>
      <point x="261" y="168" type="curve" smooth="yes"/>
      <point x="261" y="147"/>
      <point x="277" y="130"/>
      <point x="298" y="130" type="curve" smooth="yes"/>
    </contour>
    <contour>
      <point x="319" y="406"/>
      <point x="335" y="423"/>
      <point x="335" y="444" type="curve" smooth="yes"/>
      <point x="335" y="464"/>
      <point x="319" y="481"/>
      <point x="298" y="481" type="curve" smooth="yes"/>
      <point x="277" y="481"/>
      <point x="261" y="464"/>
      <point x="261" y="444" type="curve" smooth="yes"/>
      <point x="261" y="423"/>
      <point x="277" y="406"/>
      <point x="298" y="406" type="curve" smooth="yes"/>
    </contour>
  </outline>
</glyph>
<glyph name="thorn" format="1">
  <advance width="600"/>
  <unicode hex="00FE"/>
  <outline>
    <contour>
      <point x="150" y="-200" type="line"/>
      <point x="150" y="800" type="line"/>
      <point x="117" y="800" type="line"/>
      <point x="117" y="-200" type="line"/>
    </contour>
    <contour>
      <point x="142" y="295" type="line"/>
      <point x="155" y="382"/>
      <point x="247" y="478"/>
      <point x="329" y="478" type="curve" smooth="yes"/>
      <point x="418" y="478"/>
      <point x="471" y="410"/>
      <point x="471" y="251" type="curve"/>
      <point x="504" y="251" type="line"/>
      <point x="504" y="434"/>
      <point x="429" y="511"/>
      <point x="333" y="511" type="curve" smooth="yes"/>
      <point x="236" y="511"/>
      <point x="122" y="414"/>
      <point x="122" y="302" type="curve"/>
    </contour>
    <contour>
      <point x="128" y="77"/>
      <point x="218" y="-11"/>
      <point x="325" y="-11" type="curve" smooth="yes"/>
      <point x="421" y="-11"/>
      <point x="504" y="68"/>
      <point x="504" y="251" type="curve"/>
      <point x="471" y="251" type="line"/>
      <point x="471" y="92"/>
      <point x="410" y="22"/>
      <point x="321" y="22" type="curve" smooth="yes"/>
      <point x="239" y="22"/>
      <point x="152" y="108"/>
      <point x="144" y="221" type="curve"/>
      <point x="122" y="210" type="line"/>
    </contour>
  </outline>
</glyph>
<glyph name="aogonek" format="1">
  <advance width="600"/>
  <unicode hex="0105"/>
  <outline>
    <contour>
      <point x="524" y="0" type="line"/>
      <point x="542" y="12" type="line"/>
      <point x="533" y="21" type="line"/>
      <point x="491" y="0" type="line"/>
    </contour>
    <component base="a"/>
    <component base="ogonekcomb" xOffset="174"/>
  </outline>
</glyph>
<glyph name="lslash" format="1">
  <advance width="600"/>
  <unicode hex="0142"/>
  <outline>
    <contour>
      <point x="157" y="203" type="line"/>
      <point x="365" y="411" type="line"/>
      <point x="365" y="452" type="line"/>
      <point x="157" y="243" type="line"/>
    </contour>
    <component base="l"/>
  </outline>
</glyph>
<glyph name="Eng" format="1">
  <advance width="600"/>
  <unicode hex="014A"/>
  <outline>
    <contour>
      <point x="491" y="3" type="line"/>
      <point x="157" y="700" type="line"/>
      <point x="121" y="700" type="line"/>
      <point x="458" y="0" type="line"/>
    </contour>
    <contour>
      <point x="436" y="-192"/>
      <point x="491" y="-125"/>
      <point x="491" y="-7" type="curve"/>
      <point x="491" y="3" type="line"/>
      <point x="458" y="0" type="line"/>
      <point x="458" y="-136"/>
      <point x="401" y="-159"/>
      <point x="313" y="-159" type="curve"/>
      <point x="272" y="-159"/>
      <point x="221" y="-149"/>
      <point x="205" y="-145" type="curve"/>
      <point x="196" y="-178" type="line"/>
      <point x="220" y="-184"/>
      <point x="268" y="-192"/>
      <point x="320" y="-192" type="curve"/>
    </contour>
    <contour>
      <point x="144" y="0" type="line"/>
      <point x="144" y="700" type="line"/>
      <point x="111" y="700" type="line"/>
      <point x="111" y="0" type="line"/>
    </contour>
    <contour>
      <point x="491" y="0" type="line"/>
      <point x="491" y="700" type="line"/>
      <point x="458" y="700" type="line"/>
      <point x="458" y="0" type="line"/>
    </contour>
  </outline>
</glyph>
<glyph name="eng" format="1">
  <advance width="600"/>
  <unicode hex="014B"/>
  <outline>
    <contour>
      <point x="225" y="-183" type="line"/>
      <point x="239" y="-187"/>
      <point x="265" y="-192"/>
      <point x="307" y="-192" type="curve"/>
      <point x="383" y="-192"/>
      <point x="470" y="-130"/>
      <point x="470" y="-2" type="curve"/>
      <point x="470" y="2" type="line"/>
      <point x="437" y="0" type="line"/>
      <point x="437" y="-86"/>
      <point x="392" y="-159"/>
      <point x="304" y="-159" type="curve"/>
      <point x="273" y="-159"/>
      <point x="240" y="-153"/>
      <point x="234" y="-150" type="curve"/>
    </contour>
    <component base="n"/>
  </outline>
</glyph>
<glyph name="OE" format="1">
  <advance width="600"/>
  <unicode hex="0152"/>
  <outline>
    <contour>
      <point x="256" y="-11"/>
      <point x="285" y="-8"/>
      <point x="307" y="0" type="curve"/>
      <point x="302" y="34" type="line"/>
      <point x="280" y="25"/>
      <point x="257" y="22"/>
      <point x="232" y="22" type="curve" smooth="yes"/>
      <point x="159" y="22"/>
      <point x="75" y="79"/>
      <point x="75" y="348" type="curve" smooth="yes"/>
      <point x="75" y="616"/>
      <point x="159" y="673"/>
      <point x="232" y="673" type="curve" smooth="yes"/>
      <point x="257" y="673"/>
      <point x="280" y="670"/>
      <point x="302" y="661" type="curve"/>
      <point x="302" y="697" type="line"/>
      <point x="280" y="703"/>
      <point x="256" y="706"/>
      <point x="232" y="706" type="curve" smooth="yes"/>
      <point x="145" y="706"/>
      <point x="37" y="645"/>
      <point x="37" y="348" type="curve" smooth="yes"/>
      <point x="37" y="50"/>
      <point x="145" y="-11"/>
      <point x="232" y="-11" type="curve" smooth="yes"/>
    </contour>
    <contour>
      <point x="562" y="0" type="line"/>
      <point x="562" y="32" type="line"/>
      <point x="303" y="32" type="line"/>
      <point x="303" y="0" type="line"/>
    </contour>
    <contour>
      <point x="332" y="0" type="line"/>
      <point x="332" y="700" type="line"/>
      <point x="299" y="700" type="line"/>
      <point x="299" y="0" type="line"/>
    </contour>
    <contour>
      <point x="538" y="328" type="line"/>
      <point x="538" y="360" type="line"/>
      <point x="323" y="360" type="line"/>
      <point x="323" y="328" type="line"/>
    </contour>
    <contour>
      <point x="562" y="668" type="line"/>
      <point x="562" y="700" type="line"/>
      <point x="286" y="700" type="line"/>
      <point x="286" y="668" type="line"/>
    </contour>
  </outline>
</glyph>
<glyph name="oe" format="1">
  <advance width="600"/>
  <unicode hex="0153"/>
  <outline>
    <contour>
      <point x="260" y="-11"/>
      <point x="318" y="58"/>
      <point x="318" y="251" type="curve" smooth="yes"/>
      <point x="318" y="443"/>
      <point x="260" y="512"/>
      <point x="184" y="512" type="curve" smooth="yes"/>
      <point x="107" y="512"/>
      <point x="49" y="443"/>
      <point x="49" y="251" type="curve" smooth="yes"/>
      <point x="49" y="58"/>
      <point x="107" y="-11"/>
      <point x="184" y="-11" type="curve" smooth="yes"/>
    </contour>
    <contour>
      <point x="131" y="22"/>
      <point x="84" y="72"/>
      <point x="84" y="251" type="curve" smooth="yes"/>
      <point x="84" y="427"/>
      <point x="131" y="479"/>
      <point x="184" y="479" type="curve" smooth="yes"/>
      <point x="236" y="479"/>
      <point x="280" y="427"/>
      <point x="280" y="251" type="curve" smooth="yes"/>
      <point x="280" y="72"/>
      <point x="236" y="22"/>
      <point x="184" y="22" type="curve" smooth="yes"/>
    </contour>
    <contour>
      <point x="490" y="-11"/>
      <point x="546" y="19"/>
      <point x="577" y="93" type="curve"/>
      <point x="546" y="107" type="line"/>
      <point x="535" y="77"/>
      <point x="510" y="22"/>
      <point x="431" y="22" type="curve" smooth="yes"/>
      <point x="339" y="22"/>
      <point x="318" y="122"/>
      <point x="318" y="251" type="curve" smooth="yes"/>
      <point x="318" y="384"/>
      <point x="353" y="479"/>
      <point x="436" y="479" type="curve" smooth="yes"/>
      <point x="530" y="479"/>
      <point x="533" y="370"/>
      <point x="533" y="281" type="curve"/>
      <point x="567" y="249" type="line"/>
      <point x="577" y="419"/>
      <point x="547" y="512"/>
      <point x="436" y="512" type="curve" smooth="yes"/>
      <point x="349" y="512"/>
      <point x="283" y="444"/>
      <point x="283" y="257" type="curve" smooth="yes"/>
      <point x="283" y="74"/>
      <point x="329" y="-11"/>
      <point x="429" y="-11" type="curve" smooth="yes"/>
    </contour>
    <contour>
      <point x="567" y="249" type="line"/>
      <point x="537" y="281" type="line"/>
      <point x="314" y="281" type="line"/>
      <point x="314" y="249" type="line"/>
    </contour>
  </outline>
</glyph>
<glyph name="uogonek" format="1">
  <advance width="600"/>
  <unicode hex="0173"/>
  <outline>
    <contour>
      <point x="464" y="-1" type="line"/>
      <point x="478" y="-5" type="line"/>
      <point x="478" y="6" type="line"/>
      <point x="468" y="1" type="line"/>
    </contour>
    <component base="u"/>
    <component base="ogonekcomb" xOffset="144"/>
  </outline>
</glyph>
<glyph name="circumflex" format="1">
  <advance width="600"/>
  <unicode hex="02C6"/>
  <outline>
    <contour>
      <point x="315" y="740" type="line"/>
      <point x="284" y="740" type="line"/>
      <point x="163" y="619" type="line"/>
      <point x="212" y="619" type="line"/>
      <point x="300" y="710" type="line"/>
      <point x="387" y="619" type="line"/>
      <point x="436" y="619" type="line"/>
    </contour>
  </outline>
</glyph>
<glyph name="breve" format="1">
  <advance width="600"/>
  <unicode hex="02D8"/>
  <outline>
    <contour>
      <point x="371" y="740" type="line"/>
      <point x="371" y="709"/>
      <point x="361" y="646"/>
      <point x="300" y="646" type="curve" smooth="yes"/>
      <point x="240" y="646"/>
      <point x="229" y="709"/>
      <point x="229" y="740" type="curve"/>
      <point x="193" y="740" type="line"/>
      <point x="193" y="678"/>
      <point x="228" y="616"/>
      <point x="299" y="616" type="curve" smooth="yes"/>
      <point x="370" y="616"/>
      <point x="407" y="678"/>
      <point x="407" y="740" type="curve"/>
    </contour>
  </outline>
</glyph>
<glyph name="ogonek" format="1">
  <advance width="600"/>
  <unicode hex="02DB"/>
  <outline>
    <contour>
      <point x="317" y="0" type="line" smooth="yes"/>
      <point x="317" y="0"/>
      <point x="216" y="-46"/>
      <point x="216" y="-115" type="curve" smooth="yes"/>
      <point x="216" y="-199"/>
      <point x="310" y="-213"/>
      <point x="385" y="-190" type="curve"/>
      <point x="373" y="-159" type="line"/>
      <point x="334" y="-172"/>
      <point x="253" y="-181"/>
      <point x="253" y="-116" type="curve" smooth="yes"/>
      <point x="253" y="-57"/>
      <point x="350" y="0"/>
      <point x="350" y="0" type="curve" smooth="yes"/>
    </contour>
  </outline>
</glyph>
<glyph name="strokelongcomb" format="1">
  <advance width="600"/>
  <unicode hex="0336"/>
  <outline>
    <contour>
      <point x="78" y="338" type="line"/>
      <point x="520" y="338" type="line"/>
      <point x="520" y="370" type="line"/>
      <point x="78" y="370" type="line"/>
    </contour>
  </outline>
</glyph>
<glyph name="slashshortcomb" format="1">
  <advance width="600"/>
  <unicode hex="0337"/>
  <outline>
    <contour>
      <point x="459" y="534" type="line"/>
      <point x="75" y="-33" type="line"/>
      <point x="115" y="-33" type="line"/>
      <point x="499" y="534" type="line"/>
    </contour>
  </outline>
</glyph>
<glyph name="quoteleft" format="1">
  <advance width="600"/>
  <unicode hex="2018"/>
  <outline>
    <contour>
      <point x="269" y="663"/>
      <point x="246" y="640"/>
      <point x="246" y="611" type="curve" smooth="yes"/>
      <point x="246" y="584"/>
      <point x="269" y="561"/>
      <point x="297" y="561" type="curve" smooth="yes"/>
      <point x="325" y="561"/>
      <point x="348" y="584"/>
      <point x="348" y="611" type="curve" smooth="yes"/>
      <point x="348" y="640"/>
      <point x="325" y="663"/>
      <point x="297" y="663" type="curve" smooth="yes"/>
    </contour>
    <contour>
      <point x="333" y="751" type="line"/>
      <point x="303" y="765" type="line"/>
      <point x="250" y="631" type="line"/>
      <point x="296" y="638" type="line"/>
    </contour>
  </outline>
</glyph>
<glyph name="quotedblleft" format="1">
  <advance width="600"/>
  <unicode hex="201C"/>
  <outline>
    <contour>
      <point x="256" y="638" type="line"/>
      <point x="293" y="751" type="line"/>
      <point x="263" y="765" type="line"/>
      <point x="210" y="631" type="line"/>
    </contour>
    <contour>
      <point x="448" y="561"/>
      <point x="471" y="584"/>
      <point x="471" y="611" type="curve" smooth="yes"/>
      <point x="471" y="640"/>
      <point x="448" y="663"/>
      <point x="420" y="663" type="curve" smooth="yes"/>
      <point x="392" y="663"/>
      <point x="369" y="640"/>
      <point x="369" y="611" type="curve" smooth="yes"/>
      <point x="369" y="584"/>
      <point x="392" y="561"/>
      <point x="420" y="561" type="curve" smooth="yes"/>
    </contour>
    <contour>
      <point x="419" y="638" type="line"/>
      <point x="456" y="751" type="line"/>
      <point x="426" y="765" type="line"/>
      <point x="373" y="631" type="line"/>
    </contour>
    <contour>
      <point x="285" y="561"/>
      <point x="308" y="584"/>
      <point x="308" y="611" type="curve" smooth="yes"/>
      <point x="308" y="640"/>
      <point x="285" y="663"/>
      <point x="257" y="663" type="curve" smooth="yes"/>
      <point x="229" y="663"/>
      <point x="206" y="640"/>
      <point x="206" y="611" type="curve" smooth="yes"/>
      <point x="206" y="584"/>
      <point x="229" y="561"/>
      <point x="257" y="561" type="curve" smooth="yes"/>
    </contour>
  </outline>
</glyph>
<glyph name="quotedblright" format="1">
  <advance width="600"/>
  <unicode hex="201D"/>
  <outline>
    <contour>
      <point x="388" y="656"/>
      <point x="411" y="679"/>
      <point x="411" y="708" type="curve" smooth="yes"/>
      <point x="411" y="735"/>
      <point x="388" y="758"/>
      <point x="360" y="758" type="curve" smooth="yes"/>
      <point x="332" y="758"/>
      <point x="309" y="735"/>
      <point x="309" y="708" type="curve" smooth="yes"/>
      <point x="309" y="679"/>
      <point x="332" y="656"/>
      <point x="360" y="656" type="curve" smooth="yes"/>
    </contour>
    <contour>
      <point x="244" y="688" type="line"/>
      <point x="198" y="681" type="line"/>
      <point x="161" y="568" type="line"/>
      <point x="191" y="554" type="line"/>
    </contour>
    <contour>
      <point x="225" y="656"/>
      <point x="248" y="679"/>
      <point x="248" y="708" type="curve" smooth="yes"/>
      <point x="248" y="735"/>
      <point x="225" y="758"/>
      <point x="197" y="758" type="curve" smooth="yes"/>
      <point x="169" y="758"/>
      <point x="146" y="735"/>
      <point x="146" y="708" type="curve" smooth="yes"/>
      <point x="146" y="679"/>
      <point x="169" y="656"/>
      <point x="197" y="656" type="curve" smooth="yes"/>
    </contour>
    <contour>
      <point x="407" y="688" type="line"/>
      <point x="361" y="681" type="line"/>
      <point x="324" y="568" type="line"/>
      <point x="354" y="554" type="line"/>
    </contour>
  </outline>
</glyph>
<glyph name="perthousand" format="1">
  <advance width="600"/>
  <unicode hex="2030"/>
  <outline>
    <contour>
      <point x="579" y="568" type="line"/>
      <point x="559" y="595" type="line"/>
      <point x="13" y="257" type="line"/>
      <point x="33" y="230" type="line"/>
    </contour>
    <contour>
      <point x="249" y="2"/>
      <point x="293" y="31"/>
      <point x="293" y="110" type="curve" smooth="yes"/>
      <point x="293" y="187"/>
      <point x="249" y="216"/>
      <point x="194" y="216" type="curve" smooth="yes"/>
      <point x="139" y="216"/>
      <point x="96" y="187"/>
      <point x="96" y="110" type="curve" smooth="yes"/>
      <point x="96" y="31"/>
      <point x="139" y="2"/>
      <point x="194" y="2" type="curve" smooth="yes"/>
    </contour>
    <contour>
      <point x="159" y="27"/>
      <point x="131" y="41"/>
      <point x="131" y="112" type="curve" smooth="yes"/>
      <point x="131" y="175"/>
      <point x="159" y="191"/>
      <point x="194" y="191" type="curve" smooth="yes"/>
      <point x="228" y="191"/>
      <point x="258" y="175"/>
      <point x="258" y="112" type="curve" smooth="yes"/>
      <point x="258" y="41"/>
      <point x="228" y="27"/>
      <point x="194" y="27" type="curve" smooth="yes"/>
    </contour>
    <contour>
      <point x="497" y="2"/>
      <point x="541" y="31"/>
      <point x="541" y="110" type="curve" smooth="yes"/>
      <point x="541" y="187"/>
      <point x="497" y="216"/>
      <point x="442" y="216" type="curve" smooth="yes"/>
      <point x="387" y="216"/>
      <point x="344" y="187"/>
      <point x="344" y="110" type="curve" smooth="yes"/>
      <point x="344" y="31"/>
      <point x="387" y="2"/>
      <point x="442" y="2" type="curve" smooth="yes"/>
    </contour>
    <contour>
      <point x="407" y="27"/>
      <point x="379" y="41"/>
      <point x="379" y="112" type="curve" smooth="yes"/>
      <point x="379" y="175"/>
      <point x="407" y="191"/>
      <point x="442" y="191" type="curve" smooth="yes"/>
      <point x="476" y="191"/>
      <point x="506" y="175"/>
      <point x="506" y="112" type="curve" smooth="yes"/>
      <point x="506" y="41"/>
      <point x="476" y="27"/>
      <point x="442" y="27" type="curve" smooth="yes"/>
    </contour>
    <contour>
      <point x="249" y="469"/>
      <point x="293" y="498"/>
      <point x="293" y="577" type="curve" smooth="yes"/>
      <point x="293" y="654"/>
      <point x="249" y="683"/>
      <point x="194" y="683" type="curve" smooth="yes"/>
      <point x="139" y="683"/>
      <point x="96" y="654"/>
      <point x="96" y="577" type="curve" smooth="yes"/>
      <point x="96" y="498"/>
      <point x="139" y="469"/>
      <point x="194" y="469" type="curve" smooth="yes"/>
    </contour>
    <contour>
      <point x="159" y="494"/>
      <point x="131" y="508"/>
      <point x="131" y="579" type="curve" smooth="yes"/>
      <point x="131" y="642"/>
      <point x="159" y="658"/>
      <point x="194" y="658" type="curve" smooth="yes"/>
      <point x="228" y="658"/>
      <point x="258" y="642"/>
      <point x="258" y="579" type="curve" smooth="yes"/>
      <point x="258" y="508"/>
      <point x="228" y="494"/>
      <point x="194" y="494" type="curve" smooth="yes"/>
    </contour>
  </outline>
</glyph>
<glyph name="guilsinglleft" format="1">
  <advance width="600"/>
  <unicode hex="2039"/>
  <outline>
    <contour>
      <point x="221" y="273" type="line"/>
      <point x="427" y="512" type="line"/>
      <point x="409" y="530" type="line"/>
      <point x="192" y="311" type="line"/>
    </contour>
    <contour>
      <point x="409" y="57" type="line"/>
      <point x="427" y="75" type="line"/>
      <point x="221" y="315" type="line"/>
      <point x="192" y="276" type="line"/>
    </contour>
    <contour>
      <point x="192" y="276" type="line"/>
      <point x="224" y="276" type="line"/>
      <point x="224" y="311" type="line"/>
      <point x="192" y="311" type="line"/>
    </contour>
  </outline>
</glyph>
<glyph name="fraction" format="1">
  <advance width="600"/>
  <unicode hex="2044"/>
  <outline>
    <contour>
      <point x="501" y="800" type="line"/>
      <point x="62" y="-142" type="line"/>
      <point x="92" y="-142" type="line"/>
      <point x="531" y="800" type="line"/>
    </contour>
  </outline>
</glyph>
<glyph name="upArrow" format="1">
  <advance width="600"/>
  <unicode hex="2191"/>
  <outline>
    <contour>
      <point x="308" y="99" type="line"/>
      <point x="308" y="392" type="line"/>
      <point x="277" y="392" type="line" smooth="yes"/>
      <point x="277" y="99" type="line"/>
    </contour>
    <contour>
      <point x="293" y="441" type="line"/>
      <point x="239" y="369" type="line"/>
      <point x="348" y="369" type="line"/>
    </contour>
  </outline>
</glyph>
<glyph name="emptyset" format="1">
  <advance width="600"/>
  <unicode hex="2205"/>
  <outline>
    <contour>
      <point x="463" y="-2"/>
      <point x="593" y="128"/>
      <point x="593" y="288" type="curve" smooth="yes"/>
      <point x="593" y="448"/>
      <point x="463" y="578"/>
      <point x="303" y="578" type="curve" smooth="yes"/>
      <point x="142" y="578"/>
      <point x="12" y="448"/>
      <point x="12" y="288" type="curve" smooth="yes"/>
      <point x="12" y="128"/>
      <point x="142" y="-2"/>
      <point x="303" y="-2" type="curve" smooth="yes"/>
    </contour>
    <contour>
      <point x="163" y="36"/>
      <point x="50" y="149"/>
      <point x="50" y="288" type="curve" smooth="yes"/>
      <point x="50" y="427"/>
      <point x="163" y="540"/>
      <point x="303" y="540" type="curve" smooth="yes"/>
      <point x="442" y="540"/>
      <point x="555" y="427"/>
      <point x="555" y="288" type="curve" smooth="yes"/>
      <point x="555" y="149"/>
      <point x="442" y="36"/>
      <point x="303" y="36" type="curve" smooth="yes"/>
    </contour>
    <contour>
      <point x="15" y="30" type="line"/>
      <point x="34" y="11" type="line"/>
      <point x="575" y="551" type="line"/>
      <point x="556" y="570" type="line"/>
    </contour>
  </outline>
</glyph>
<glyph name="radical" format="1">
  <advance width="600"/>
  <unicode hex="221A"/>
  <outline>
    <contour>
      <point x="254" y="0" type="line"/>
      <point x="447" y="869" type="line"/>
      <point x="413" y="869" type="line"/>
      <point x="220" y="0" type="line"/>
    </contour>
    <contour>
      <point x="242" y="0" type="line"/>
      <point x="242" y="32" type="line"/>
      <point x="148" y="32" type="line"/>
      <point x="148" y="0" type="line"/>
    </contour>
    <contour>
      <point x="170" y="0" type="line"/>
      <point x="85" y="378" type="line"/>
      <point x="51" y="378" type="line"/>
      <point x="136" y="0" type="line"/>
    </contour>
    <contour>
      <point x="595" y="837" type="line"/>
      <point x="595" y="869" type="line"/>
      <point x="437" y="869" type="line"/>
      <point x="437" y="837" type="line"/>
    </contour>
  </outline>
</glyph>
<glyph name="infinity" format="1">
  <advance width="600"/>
  <unicode hex="221E"/>
  <outline>
    <contour>
      <point x="292" y="146"/>
      <point x="312" y="309"/>
      <point x="312" y="309" type="curve" smooth="yes"/>
      <point x="312" y="309"/>
      <point x="292" y="470"/>
      <point x="185" y="475" type="curve" smooth="yes"/>
      <point x="101" y="479"/>
      <point x="57" y="413"/>
      <point x="57" y="309" type="curve" smooth="yes"/>
      <point x="57" y="203"/>
      <point x="101" y="137"/>
      <point x="185" y="141" type="curve" smooth="yes"/>
    </contour>
    <contour>
      <point x="133" y="169"/>
      <point x="87" y="204"/>
      <point x="87" y="309" type="curve" smooth="yes"/>
      <point x="87" y="412"/>
      <point x="133" y="447"/>
      <point x="180" y="447" type="curve" smooth="yes"/>
      <point x="259" y="447"/>
      <point x="284" y="309"/>
      <point x="284" y="309" type="curve" smooth="yes"/>
      <point x="284" y="309"/>
      <point x="259" y="169"/>
      <point x="180" y="169" type="curve" smooth="yes"/>
    </contour>
    <contour>
      <point x="495" y="137"/>
      <point x="539" y="203"/>
      <point x="539" y="309" type="curve" smooth="yes"/>
      <point x="539" y="413"/>
      <point x="495" y="479"/>
      <point x="411" y="475" type="curve" smooth="yes"/>
      <point x="304" y="470"/>
      <point x="284" y="309"/>
      <point x="284" y="309" type="curve" smooth="yes"/>
      <point x="284" y="309"/>
      <point x="304" y="146"/>
      <point x="411" y="141" type="curve" smooth="yes"/>
    </contour>
    <contour>
      <point x="337" y="169"/>
      <point x="312" y="309"/>
      <point x="312" y="309" type="curve" smooth="yes"/>
      <point x="312" y="309"/>
      <point x="337" y="447"/>
      <point x="416" y="447" type="curve" smooth="yes"/>
      <point x="462" y="447"/>
      <point x="509" y="412"/>
      <point x="509" y="309" type="curve" smooth="yes"/>
      <point x="509" y="204"/>
      <point x="462" y="169"/>
      <point x="416" y="169" type="curve" smooth="yes"/>
    </contour>
  </outline>
</glyph>
<glyph name="approxequal" format="1">
  <advance width="600"/>
  <unicode hex="2248"/>
  <outline>
    <contour>
      <point x="80" y="406"/>
      <point x="143" y="449"/>
      <point x="202" y="449" type="curve" smooth="yes"/>
      <point x="295" y="449"/>
      <point x="308" y="381"/>
      <point x="380" y="381" type="curve" smooth="yes"/>
      <point x="432" y="381"/>
      <point x="474" y="419"/>
      <point x="474" y="419" type="curve"/>
      <point x="489" y="395" type="line"/>
      <point x="481" y="385"/>
      <point x="442" y="349"/>
      <point x="383" y="349" type="curve" smooth="yes"/>
      <point x="290" y="349"/>
      <point x="277" y="415"/>
      <point x="205" y="415" type="curve" smooth="yes"/>
      <point x="153" y="415"/>
      <point x="89" y="370"/>
      <point x="89" y="370" type="curve"/>
      <point x="75" y="395" type="line"/>
    </contour>
    <contour>
      <point x="80" y="229"/>
      <point x="143" y="272"/>
      <point x="202" y="272" type="curve" smooth="yes"/>
      <point x="295" y="272"/>
      <point x="308" y="204"/>
      <point x="380" y="204" type="curve" smooth="yes"/>
      <point x="432" y="204"/>
      <point x="474" y="242"/>
      <point x="474" y="242" type="curve"/>
      <point x="489" y="218" type="line"/>
      <point x="481" y="208"/>
      <point x="442" y="172"/>
      <point x="383" y="172" type="curve" smooth="yes"/>
      <point x="290" y="172"/>
      <point x="277" y="238"/>
      <point x="205" y="238" type="curve" smooth="yes"/>
      <point x="153" y="238"/>
      <point x="89" y="193"/>
      <point x="89" y="193" type="curve"/>
      <point x="75" y="218" type="line"/>
    </contour>
  </outline>
</glyph>
<glyph name="notequal" format="1">
  <advance width="600"/>
  <unicode hex="2260"/>
  <outline>
    <contour>
      <point x="214" y="111" type="line"/>
      <point x="403" y="503" type="line"/>
      <point x="369" y="503" type="line"/>
      <point x="181" y="111" type="line"/>
    </contour>
    <component base="equal"/>
  </outline>
</glyph>
<glyph name="lozenge" format="1">
  <advance width="600"/>
  <unicode hex="25CA"/>
  <outline>
    <contour>
      <point x="289" y="672" type="line"/>
      <point x="496" y="331" type="line"/>
      <point x="524" y="350" type="line"/>
      <point x="314" y="700" type="line"/>
    </contour>
    <contour>
      <point x="287" y="700" type="line"/>
      <point x="287" y="659" type="line"/>
      <point x="314" y="659" type="line"/>
      <point x="314" y="700" type="line"/>
    </contour>
    <contour>
      <point x="77" y="350" type="line"/>
      <point x="105" y="331" type="line"/>
      <point x="312" y="672" type="line"/>
      <point x="287" y="700" type="line"/>
    </contour>
    <contour>
      <point x="524" y="350" type="line"/>
      <point x="496" y="369" type="line"/>
      <point x="289" y="28" type="line"/>
      <point x="314" y="0" type="line"/>
    </contour>
    <contour>
      <point x="314" y="41" type="line"/>
      <point x="287" y="41" type="line"/>
      <point x="287" y="0" type="line"/>
      <point x="314" y="0" type="line"/>
    </contour>
    <contour>
      <point x="312" y="28" type="line"/>
      <point x="105" y="369" type="line"/>
      <point x="77" y="350" type="line"/>
      <point x="287" y="0" type="line"/>
    </contour>
  </outline>
</glyph>
<glyph name="Q.ss01" format="1">
  <advance width="600"/>
  <outline>
    <contour>
      <point x="413" y="-11"/>
      <point x="521" y="50"/>
      <point x="521" y="348" type="curve" smooth="yes"/>
      <point x="521" y="645"/>
      <point x="413" y="706"/>
      <point x="297" y="706" type="curve" smooth="yes"/>
      <point x="180" y="706"/>
      <point x="72" y="645"/>
      <point x="72" y="348" type="curve" smooth="yes"/>
      <point x="72" y="50"/>
      <point x="180" y="-11"/>
      <point x="297" y="-11" type="curve" smooth="yes"/>
    </contour>
    <contour>
      <point x="550" y="-63" type="line"/>
      <point x="540" y="-3"/>
      <point x="435" y="47"/>
      <point x="345" y="24" type="curve"/>
      <point x="354" y="-5" type="line"/>
      <point x="429" y="16"/>
      <point x="513" y="-23"/>
      <point x="522" y="-88" type="curve"/>
    </contour>
    <contour>
      <point x="194" y="22"/>
      <point x="110" y="79"/>
      <point x="110" y="348" type="curve" smooth="yes"/>
      <point x="110" y="616"/>
      <point x="194" y="673"/>
      <point x="297" y="673" type="curve" smooth="yes"/>
      <point x="399" y="673"/>
      <point x="483" y="616"/>
      <point x="483" y="348" type="curve" smooth="yes"/>
      <point x="483" y="79"/>
      <point x="399" y="22"/>
      <point x="297" y="22" type="curve" smooth="yes"/>
    </contour>
  </outline>
</glyph>
<glyph name="X.ss01" format="1">
  <advance width="600"/>
  <outline>
    <contour>
      <point x="290" y="371" type="line"/>
      <point x="86" y="0" type="line"/>
      <point x="126" y="0" type="line"/>
      <point x="307" y="332" type="line"/>
    </contour>
    <contour>
      <point x="307" y="332" type="line"/>
      <point x="512" y="700" type="line"/>
      <point x="473" y="700" type="line"/>
      <point x="290" y="371" type="line"/>
    </contour>
    <contour>
      <point x="473" y="0" type="line"/>
      <point x="512" y="0" type="line"/>
      <point x="308" y="371" type="line"/>
      <point x="291" y="332" type="line"/>
    </contour>
    <contour>
      <point x="126" y="700" type="line"/>
      <point x="86" y="700" type="line"/>
      <point x="291" y="332" type="line"/>
      <point x="308" y="371" type="line"/>
    </contour>
  </outline>
</glyph>
<glyph name="g.ss01" format="1">
  <advance width="600"/>
  <outline>
    <contour>
      <point x="550" y="503" type="line"/>
      <point x="512" y="503"/>
      <point x="448" y="460"/>
      <point x="462" y="360" type="curve"/>
      <point x="492" y="351" type="line"/>
      <point x="488" y="449"/>
      <point x="530" y="470"/>
      <point x="559" y="471" type="curve"/>
    </contour>
    <contour>
      <point x="402" y="149"/>
      <point x="493" y="188"/>
      <point x="493" y="331" type="curve" smooth="yes"/>
      <point x="493" y="473"/>
      <point x="407" y="512"/>
      <point x="301" y="512" type="curve" smooth="yes"/>
      <point x="194" y="512"/>
      <point x="108" y="473"/>
      <point x="108" y="331" type="curve" smooth="yes"/>
      <point x="108" y="188"/>
      <point x="200" y="149"/>
      <point x="301" y="149" type="curve" smooth="yes"/>
    </contour>
    <contour>
      <point x="208" y="182"/>
      <point x="144" y="217"/>
      <point x="144" y="331" type="curve" smooth="yes"/>
      <point x="144" y="444"/>
      <point x="198" y="480"/>
      <point x="301" y="480" type="curve" smooth="yes"/>
      <point x="403" y="480"/>
      <point x="457" y="444"/>
      <point x="457" y="331" type="curve" smooth="yes"/>
      <point x="457" y="217"/>
      <point x="393" y="182"/>
      <point x="301" y="182" type="curve" smooth="yes"/>
    </contour>
    <contour>
      <point x="228" y="-1" type="line"/>
      <point x="238" y="31" type="line"/>
      <point x="201" y="32" type="line" smooth="yes"/>
      <point x="128" y="34"/>
      <point x="168" y="155"/>
      <point x="228" y="182" type="curve"/>
      <point x="197" y="195" type="line"/>
      <point x="172" y="177"/>
      <point x="131" y="140"/>
      <point x="125" y="92" type="curve" smooth="yes"/>
      <point x="118" y="37"/>
      <point x="146" y="-1"/>
      <point x="210" y="-1" type="curve" smooth="yes"/>
    </contour>
    <contour>
      <point x="95" y="-136"/>
      <point x="159" y="-182"/>
      <point x="307" y="-182" type="curve"/>
      <point x="307" y="-150" type="line"/>
      <point x="186" y="-150"/>
      <point x="132" y="-117"/>
      <point x="131" y="-65" type="curve" smooth="yes"/>
      <point x="130" y="-13"/>
      <point x="173" y="16"/>
      <point x="192" y="26" type="curve"/>
      <point x="169" y="41" type="line"/>
      <point x="152" y="33"/>
      <point x="95" y="-1"/>
      <point x="95" y="-63" type="curve" smooth="yes"/>
    </contour>
    <contour>
      <point x="514" y="-16"/>
      <point x="490" y="31"/>
      <point x="399" y="31" type="curve"/>
      <point x="382" y="-1" type="line"/>
      <point x="471" y="-1"/>
      <point x="476" y="-35"/>
      <point x="470" y="-67" type="curve" smooth="yes"/>
      <point x="464" y="-101"/>
      <point x="428" y="-150"/>
      <point x="307" y="-150" type="curve"/>
      <point x="307" y="-182" type="line"/>
      <point x="458" y="-182"/>
      <point x="502" y="-109"/>
      <point x="508" y="-63" type="curve" smooth="yes"/>
    </contour>
    <contour>
      <point x="399" y="31" type="line"/>
      <point x="399" y="31"/>
      <point x="398" y="31"/>
      <point x="398" y="31" type="curve" smooth="yes"/>
      <point x="238" y="31" type="line"/>
      <point x="228" y="-1" type="line"/>
      <point x="382" y="-1" type="line"/>
    </contour>
  </outline>
</glyph>
<glyph name="i.ss01" format="1">
  <advance width="600"/>
  <outline>
    <contour>
      <point x="429" y="-11"/>
      <point x="478" y="-1"/>
      <point x="484" y="0" type="curve"/>
      <point x="484" y="32" type="line"/>
      <point x="479" y="31"/>
      <point x="428" y="20"/>
      <point x="384" y="20" type="curve"/>
      <point x="340" y="20"/>
      <point x="302" y="30"/>
      <point x="302" y="123" type="curve"/>
      <point x="269" y="117" type="line"/>
      <point x="269" y="14"/>
      <point x="313" y="-11"/>
      <point x="375" y="-11" type="curve"/>
    </contour>
    <contour>
      <point x="302" y="123" type="line"/>
      <point x="302" y="500" type="line"/>
      <point x="269" y="500" type="line"/>
      <point x="269" y="117" type="line"/>
    </contour>
    <contour>
      <point x="274" y="468" type="line"/>
      <point x="274" y="500" type="line"/>
      <point x="111" y="500" type="line"/>
      <point x="111" y="468" type="line"/>
    </contour>
    <contour>
      <point x="309" y="653"/>
      <point x="329" y="673"/>
      <point x="329" y="698" type="curve" smooth="yes"/>
      <point x="329" y="723"/>
      <point x="309" y="743"/>
      <point x="284" y="743" type="curve" smooth="yes"/>
      <point x="259" y="743"/>
      <point x="239" y="723"/>
      <point x="239" y="698" type="curve" smooth="yes"/>
      <point x="239" y="673"/>
      <point x="259" y="653"/>
      <point x="284" y="653" type="curve" smooth="yes"/>
    </contour>
  </outline>
</glyph>
<glyph name="t.ss01" format="1">
  <advance width="600"/>
  <outline>
    <contour>
      <point x="303" y="26" type="line"/>
      <point x="303" y="680" type="line"/>
      <point x="270" y="680" type="line"/>
      <point x="270" y="16" type="line"/>
    </contour>
    <contour>
      <point x="457" y="0" type="line"/>
      <point x="457" y="32" type="line"/>
      <point x="270" y="32" type="line"/>
      <point x="270" y="0" type="line"/>
    </contour>
    <contour>
      <point x="502" y="468" type="line"/>
      <point x="502" y="500" type="line"/>
      <point x="130" y="500" type="line"/>
      <point x="130" y="468" type="line"/>
    </contour>
  </outline>
</glyph>
<glyph name="three.ss01" format="1">
  <advance width="600"/>
  <outline>
    <contour>
      <point x="443" y="-11"/>
      <point x="526" y="71"/>
      <point x="526" y="197" type="curve" smooth="yes"/>
      <point x="526" y="337"/>
      <point x="401" y="418"/>
      <point x="288" y="372" type="curve"/>
      <point x="265" y="336" type="line"/>
      <point x="377" y="385"/>
      <point x="486" y="325"/>
      <point x="486" y="197" type="curve" smooth="yes"/>
      <point x="486" y="91"/>
      <point x="417" y="22"/>
      <point x="305" y="22" type="curve" smooth="yes"/>
      <point x="227" y="22"/>
      <point x="155" y="54"/>
      <point x="128" y="101" type="curve"/>
      <point x="93" y="80" type="line"/>
      <point x="134" y="24"/>
      <point x="217" y="-11"/>
      <point x="308" y="-11" type="curve" smooth="yes"/>
    </contour>
    <contour>
      <point x="467" y="668" type="line"/>
      <point x="237" y="359" type="line"/>
      <point x="265" y="336" type="line"/>
      <point x="510" y="668" type="line"/>
    </contour>
    <contour>
      <point x="510" y="700" type="line"/>
      <point x="133" y="700" type="line"/>
      <point x="133" y="668" type="line"/>
      <point x="510" y="668" type="line"/>
    </contour>
  </outline>
</glyph>
<glyph name="x.ss01" format="1">
  <advance width="600"/>
  <outline>
    <contour>
      <point x="289" y="265" type="line"/>
      <point x="102" y="0" type="line"/>
      <point x="143" y="0" type="line"/>
      <point x="308" y="237" type="line"/>
    </contour>
    <contour>
      <point x="308" y="237" type="line"/>
      <point x="502" y="500" type="line"/>
      <point x="461" y="500" type="line"/>
      <point x="289" y="265" type="line"/>
    </contour>
    <contour>
      <point x="456" y="0" type="line"/>
      <point x="497" y="0" type="line"/>
      <point x="309" y="265" type="line"/>
      <point x="290" y="237" type="line"/>
    </contour>
    <contour>
      <point x="143" y="500" type="line"/>
      <point x="102" y="500" type="line"/>
      <point x="290" y="237" type="line"/>
      <point x="309" y="265" type="line"/>
    </contour>
  </outline>
</glyph>
